$MeshFormat
4.1 0 8
$EndMeshFormat
$Entities
9 12 4 0
1 0 0 0 0 
2 0 3.360824742268041 0 0 
3 0.9244444444444444 0 0 0 
4 1.6 0 0 0 
5 1.6 3.309278350515464 0 0 
6 0.4266666666666667 3.876288659793814 0 0 
7 0 5 0 0 
8 0.9125925925925927 4.525773195876289 0 0 
9 1.6 5 0 0 
1 0 0 0 0 0 0 0 2 1 -2 
2 0 0 0 0 0 0 0 2 2 -3 
3 0 0 0 0 0 0 0 2 3 -1 
4 0 0 0 0 0 0 0 2 4 -5 
5 0 0 0 0 0 0 0 2 5 -6 
6 0 0 0 0 0 0 0 2 6 -2 
7 0 0 0 0 0 0 0 2 3 -4 
8 0 0 0 0 0 0 0 2 2 -7 
9 0 0 0 0 0 0 0 2 7 -8 
10 0 0 0 0 0 0 0 2 8 -9 
11 0 0 0 0 0 0 0 2 9 -5 
12 0 0 0 0 0 0 0 2 7 -9 
1 0 0 0 0.9244444444444444 3.360824742268041 0 1 1 3 1 2 3 
2 0 0 0 1.6 3.876288659793814 0 1 2 5 4 5 6 2 7 
3 0 3.309278350515464 0 1.6 5 0 1 3 6 8 9 10 11 5 6 
4 0 4.525773195876289 0 1.6 5 0 1 4 3 12 -10 -9 
$EndEntities
$Nodes
4 259 1 259
2 1 0 65
1
2
3
4
5
6
7
8
9
10
11
12
13
14
15
16
17
18
19
20
21
22
23
24
25
26
27
28
29
30
31
32
33
34
35
36
37
38
39
40
41
42
43
44
45
46
47
48
49
50
51
52
53
54
55
56
57
58
59
60
61
62
63
64
65
0 0 0
0 3.360824742268041 0
0.9244444444444444 0 0
0 0.4801178203230714 0
0 0.9602356406456936 0
0 1.440353460968316 0
0 1.920471281292214 0
0 2.400589101617444 0
0 2.880706921942743 0
0.132063492063174 2.880706921945192 0
0.2641269841262949 2.400589101622535 0
0.3961904761894006 1.920471281299934 0
0.5282539682528795 1.440353460975976 0
0.6603174603167342 0.9602356406506516 0
0.7923809523805897 0.4801178203253243 0
0.462222222223413 0 0
0.1440955157598838 2.160530191455996 0
0.3461217703730871 0.7181385604483846 0
0.3216965980985935 1.118976646429857 0
0.2149400712683533 1.680412371132227 0
0.320144988995418 0.3356748402193561 0
0.6273015873020014 0.2400589101626621 0
0.8584126984125171 0.2400589101626621 0
0.6933333333339287 0 0
0.3911836056094155 0.1678374201096781 0
0.5562629706880038 0.4078963302723402 0
0 0.7201767304843825 0
0.1730608851865436 0.839187100547039 0
0.1730608851865436 0.599128190385728 0
0.1608482990492968 1.039606143537775 0
0.3339091842358403 0.9185576034391207 0
0.4622222222211401 1.680412371137955 0
0.3715970197606164 1.560382916054102 0
0.305565273728877 1.800441826216081 0
0.2641269841264398 1.440353460972146 0
0.1074700356341766 1.560382916050271 0
0 1.680412371130265 0
0.1074700356341766 1.800441826212221 0
0.4249752831757365 1.279665053702916 0
0.1608482990492968 1.279665053699087 0
0.1320634920631474 2.400589101619989 0
0.2041112499430893 2.280559646539265 0
0.0720477578799419 2.28055964653672 0
0.5692513613768384 0.5991281903868545 0
0.3331333796842526 0.5269067003338703 0
0.1980952380947003 1.920471281296074 0
0.0720477578799419 2.040500736374105 0
0.2701429959746422 2.040500736377965 0
0.726349206348662 0.7201767304879879 0
0.5032196153449107 0.8391871005495182 0
0 1.200294550807005 0
0 0.2400589101615357 0
0.160072494497709 0.4078963302712137 0
0.160072494497709 0.1678374201096781 0
0.4910070292076639 1.039606143540254 0
0.2311111111117065 0 0
0.5942857142848068 1.200294550813314 0
0 2.160530191454829 0
0.3301587301578477 2.160530191461234 0
0.066031746031587 2.880706921943967 0
0 3.120765832105392 0
0.066031746031587 3.120765832106617 0
0.066031746031587 2.640648011781318 0
0 2.640648011780093 0
0.1980952380947344 2.640648011783863 0
2 2 0 105
66
67
68
69
70
71
72
73
74
75
76
77
78
79
80
81
82
83
84
85
86
87
88
89
90
91
92
93
94
95
96
97
98
99
100
101
102
103
104
105
106
107
108
109
110
111
112
113
114
115
116
117
118
119
120
121
122
123
124
125
126
127
128
129
130
131
132
133
134
135
136
137
138
139
140
141
142
143
144
145
146
147
148
149
150
151
152
153
154
155
156
157
158
159
160
161
162
163
164
165
166
167
168
169
170
1.6 0 0
1.6 3.309278350515464 0
0.4266666666666667 3.876288659793814 0
1.6 0.4727540500727735 0
1.6 0.9455081001451087 0
1.6 1.418262150217299 0
1.6 1.891016200290938 0
1.6 2.363770250365746 0
1.6 2.836524300440407 0
1.208888888889862 3.49828178694111 0
0.8177777777789402 3.687285223367136 0
0.2133333333338552 3.618556701031558 0
1.262222222221333 0 0
0.5831221904056101 2.774256737646207 0
1.192464312324972 2.114701706006509 0
0.4136138013220868 3.216373406033559 0
0.9652058998612647 1.306596083436888 0
0.8419209427327313 3.226382205966053 0
1.100350526772817 2.696270652236743 0
1.149813123909179 0.8056601366000841 0
0.7340389456362364 2.286657672543354 0
0.8468522814088029 1.787236563252796 0
1.193328642344369 0.3324848386724281 0
1.270232071679082 3.113347459219955 0
1.256996119177969 1.616616304730938 0
0.542662504366856 3.524977239238424 0
1.431111111110667 0.2363770250363865 0
1.337454221472773 1.181885125181204 0
1.396232156162486 2.239235978186128 0
1.350175263386409 2.530020451301245 0
1.146407419548895 2.405486179121626 0
1.374906561954589 0.6392070933364288 0
1.171570883126774 0.5690724876362561 0
1.396664321172185 0.4026194443726008 0
1.312219876727518 0.2844309318544073 0
1.515555555555334 0.35456553755458 0
1.6 2.600147275403077 0
1.350175263386409 2.766397476338575 0
0.8298493602558358 3.456833714666595 0
0.6802201410728981 3.60613123130278 0
0.6922917235497936 3.375679722602238 0
0.6277673720274091 3.221377805999806 0
0.4781381528444714 3.370675322635992 0
0.1066666666669276 3.489690721649799 0
0.2068069006610434 3.2885990741508 0
0.313473567327971 3.417465053532559 0
0.9171947362045267 2.491464162390049 0
0.9632516289806042 2.200679689274931 0
1.013333333334401 3.592783505154123 0
1.025404915811297 3.362331996453582 0
0.2728386466926304 3.048540163989376 0
1.6 0.709131075108941 0
1.374906561954589 0.8755841183725963 0
1.6 0.2363770250363867 0
1.515555555555334 0.1181885125181932 0
0.4983679958638484 2.995315071839883 0
0.7125215665691707 3.00031947180613 0
0.8417363585892136 2.735263694941475 0
0.6585805680209232 2.53045720509478 0
0.3779979188503556 3.571766970134991 0
0.5651147109128185 2.103564476921644 0
0.6215213787991017 1.853853922276365 0
0.7904456135225196 2.036947117898075 0
0.3575928412343921 2.827481829795699 0
1.019658296866887 1.950969134629652 0
1.058886543394407 0.1662424193362141 0
0.9928547973624793 0.4063013294988762 0
0.9710970381448842 0.6428889784627042 0
1.435116035839541 2.974935879830181 0
1.18529129922595 2.904809055728349 0
0.8127616800889994 1.13341586204377 0
0.7467299340570721 1.373474772206432 0
0.9050652921129565 0.8829478886253679 0
1.057509511885222 1.056128110018486 0
0.4236245872659525 2.587422919634371 0
0.4990829648812656 2.343623387082944 0
1.6 2.127393225328342 0
1.396232156162486 2.002858953148723 0
0.6875531248308412 1.613795012114386 0
0.9060290906350338 1.546916323344842 0
0.9711357347527743 2.961326429101398 0
1.056076507205907 3.169864832593004 0
1.239560480284472 3.305814623080533 0
0.6222222222228034 3.781786941580475 0
0.4846645855167614 3.700632949516119 0
1.6 3.072901325477936 0
1.435116035839541 3.21131290486771 0
1.224730215751471 1.865659005368724 0
1.428498059588985 1.753816252510938 0
1.051924200293386 1.701926433991867 0
1.404444444444931 3.403780068728287 0
1.093333333332889 0 0
1.227775432282851 0.1662424193362141 0
1.6 1.654639175254119 0
1.428498059588985 1.517439227474119 0
1.111101009519617 1.461606194083913 0
0.320000000000261 3.747422680412686 0
1.243633672690976 0.993772630890644 0
1.151330060667019 1.244240604309046 0
1.468727110736387 1.063696612663156 0
1.297225170325371 1.399250714956071 0
1.468727110736387 1.300073637699251 0
1.6 1.181885125181204 0
1.431111111110666 0 0
1.346666666666 0.1181885125181932 0
2 3 0 72
171
172
173
174
175
176
177
178
179
180
181
182
183
184
185
186
187
188
189
190
191
192
193
194
195
196
197
198
199
200
201
202
203
204
205
206
207
208
209
210
211
212
213
214
215
216
217
218
219
220
221
222
223
224
225
226
227
228
229
230
231
232
233
234
235
236
237
238
239
240
241
242
0 5 0
0.9125925925925927 4.525773195876289 0
1.6 5 0
0 3.770618556699729 0
0 4.180412371132111 0
0 4.590206185565622 0
0.304197530863325 4.841924398625883 0
0.6083950617276133 4.683848797251265 0
1.256296296295355 4.762886597937495 0
1.6 4.577319587629908 0
1.6 4.154639175259988 0
1.6 3.731958762887726 0
0.6311806861748144 4.354480868209774 0
0.927081245875217 4.184409420049179 0
1.254264686180881 4.352126626280048 0
1.22961798232212 3.907731780927433 0
0.3253335149947153 4.499707225147968 0
0.3643637248399498 4.163872143919593 0
0.6424456682125175 4.052217504133495 0
0.1756730396648099 3.97551546391592 0
0.8724295118270786 3.935847321708158 0
1.078349614098669 4.046070600488306 0
1.02369788005053 3.797508502147284 0
0.7301117229957288 3.869751363750315 0
0.7847634570438673 4.118313462091336 0
1.427132343090441 4.253382900770019 0
1.41480899116106 4.031185478093711 0
1.2419413342515 4.129929203603741 0
0.1066666666669276 3.694587628865643 0
0.08783651983240495 3.873067010307825 0
0.1945031864993326 3.797036082473739 0
0.1520987654316625 4.716065292095752 0
0 4.795103092782811 0
0.1520987654316625 4.920962199312942 0
1.090672966028049 4.268268023164614 0
1.6 4.365979381444948 0
1.427132343090441 4.464723106954978 0
0 3.97551546391592 0
0.08783651983240495 4.077963917524015 0
1.084444444443974 4.644329896906892 0
1.255280491238118 4.557506612108772 0
1.083428639386737 4.438949911078168 0
0 4.385309278348867 0
0.1626667574973577 4.544956705356794 0
0.1626667574973577 4.34005979814004 0
0.3448486199173325 4.33178968453378 0
0.1821818624199749 4.172142257525852 0
1.428148148147677 4.670103092783702 0
0.3011698531657383 3.925902061854867 0
1.219253435605991 3.703006783934272 0
0.5345561674395921 3.964253081963654 0
1.428148148147677 4.881443298968748 0
1.6 4.788659793814954 0
1.404444444444931 3.615120274914418 0
1.6 3.520618556701595 0
1.6 3.943298969073857 0
1.41480899116106 3.819845271907579 0
0.7604938271601029 4.604810996563777 0
0.7718866393837036 4.440127032043032 0
0.6197878739512138 4.519164832730519 0
0.3147655229290202 4.670815811886925 0
0.4562962962954691 4.762886597938574 0
0.4668642883611643 4.591778011199617 0
0.4782571005847648 4.427094046678871 0
0.9198369192339049 4.355091307962734 0
0.7791309660250156 4.269445144129477 0
0.3955151957533082 4.020080401856704 0
0.5034046965262337 4.108044824026544 0
0.4977722055073821 4.259176506064684 0
0.6368131771936659 4.203349186171634 0
0.2700183822523798 4.069693803917756 0
0 3.565721649483885 0
2 4 0 17
243
244
245
246
247
248
249
250
251
252
253
254
255
256
257
258
259
0.3999999999990662 5 0
0.7999999999978958 5 0
1.199999999998937 5 0
0.9681834215156038 4.803865674360368 0
0.9403880070540982 4.664819435118329 0
1.112239858905479 4.783376136148931 0
0.9999999999984164 5 0
1.08409171075727 4.901932837180183 0
0.8840917107567499 4.901932837180183 0
0.7882892416216085 4.743857235805816 0
0.7041975308627546 4.841924398625633 0
1.228148148147146 4.881443298968748 0
0.3520987654311956 4.920962199312942 0
0.1999999999995331 5 0
1.399999999999469 5 0
0.5041975308633397 4.841924398625633 0
0.5999999999984811 5 0
$EndNodes
$Elements
4 456 1 456
2 1 2 96
1 16 22 24 
2 22 23 24 
3 22 15 23 
4 24 23 3 
5 15 22 26 
6 22 25 26 
7 22 16 25 
8 26 25 21 
9 4 27 29 
10 27 28 29 
11 27 5 28 
12 29 28 18 
13 18 28 31 
14 28 30 31 
15 28 5 30 
16 31 30 19 
17 12 32 34 
18 32 33 34 
19 32 13 33 
20 34 33 20 
21 13 35 33 
22 35 36 33 
23 35 6 36 
24 33 36 20 
25 6 37 36 
26 37 38 36 
27 37 7 38 
28 36 38 20 
29 6 35 40 
30 35 39 40 
31 35 13 39 
32 40 39 19 
33 8 41 43 
34 41 42 43 
35 41 11 42 
36 43 42 17 
37 18 44 45 
38 44 26 45 
39 44 15 26 
40 45 26 21 
41 12 46 48 
42 46 47 48 
43 46 7 47 
44 48 47 17 
45 14 49 50 
46 49 44 50 
47 49 15 44 
48 50 44 18 
49 5 51 30 
50 51 40 30 
51 51 6 40 
52 30 40 19 
53 1 52 54 
54 52 53 54 
55 52 4 53 
56 54 53 21 
57 14 50 55 
58 50 31 55 
59 50 18 31 
60 55 31 19 
61 16 56 25 
62 56 54 25 
63 56 1 54 
64 25 54 21 
65 13 57 39 
66 57 55 39 
67 57 14 55 
68 39 55 19 
69 7 46 38 
70 46 34 38 
71 46 12 34 
72 38 34 20 
73 4 29 53 
74 29 45 53 
75 29 18 45 
76 53 45 21 
77 7 58 47 
78 58 43 47 
79 58 8 43 
80 47 43 17 
81 11 59 42 
82 59 48 42 
83 59 12 48 
84 42 48 17 
85 10 60 62 
86 60 61 62 
87 60 9 61 
88 62 61 2 
89 9 60 64 
90 60 63 64 
91 60 10 63 
92 64 63 8 
93 10 65 63 
94 65 41 63 
95 65 11 41 
96 63 41 8 
2 2 2 196
97 80 94 96 
98 94 95 96 
99 94 73 95 
100 96 95 84 
101 69 97 99 
102 97 98 99 
103 97 85 98 
104 99 98 88 
105 69 99 101 
106 99 100 101 
107 99 88 100 
108 101 100 92 
109 73 102 95 
110 102 103 95 
111 102 74 103 
112 95 103 84 
113 83 104 106 
114 104 105 106 
115 104 76 105 
116 106 105 91 
117 81 107 108 
118 107 106 108 
119 107 83 106 
120 108 106 91 
121 77 109 111 
122 109 110 111 
123 109 2 110 
124 111 110 81 
125 80 96 113 
126 96 112 113 
127 96 84 112 
128 113 112 86 
129 75 114 115 
130 114 104 115 
131 114 76 104 
132 115 104 83 
133 2 62 110 
134 62 116 110 
135 62 10 116 
136 110 116 81 
137 69 117 97 
138 117 118 97 
139 117 70 118 
140 97 118 85 
141 66 119 120 
142 119 101 120 
143 119 69 101 
144 120 101 92 
145 81 121 107 
146 121 122 107 
147 121 79 122 
148 107 122 83 
149 84 123 112 
150 123 124 112 
151 123 79 124 
152 112 124 86 
153 77 111 125 
154 111 108 125 
155 111 81 108 
156 125 108 91 
157 86 126 128 
158 126 127 128 
159 126 12 127 
160 128 127 87 
161 10 129 116 
162 129 121 116 
163 129 79 121 
164 116 121 81 
165 80 113 130 
166 113 128 130 
167 113 86 128 
168 130 128 87 
169 15 23 132 
170 23 131 132 
171 23 3 131 
172 132 131 88 
173 85 133 98 
174 133 132 98 
175 133 15 132 
176 98 132 88 
177 84 103 135 
178 103 134 135 
179 103 74 134 
180 135 134 89 
181 13 57 137 
182 57 136 137 
183 57 14 136 
184 137 136 82 
185 82 136 139 
186 136 138 139 
187 136 14 138 
188 139 138 85 
189 10 65 129 
190 65 140 129 
191 65 11 140 
192 129 140 79 
193 11 59 141 
194 59 126 141 
195 59 12 126 
196 141 126 86 
197 72 142 143 
198 142 94 143 
199 142 73 94 
200 143 94 80 
201 12 32 127 
202 32 144 127 
203 32 13 144 
204 127 144 87 
205 79 140 124 
206 140 141 124 
207 140 11 141 
208 124 141 86 
209 14 49 138 
210 49 133 138 
211 49 15 133 
212 138 133 85 
213 13 137 144 
214 137 145 144 
215 137 82 145 
216 144 145 87 
217 83 122 146 
218 122 123 146 
219 122 79 123 
220 146 123 84 
221 75 115 148 
222 115 147 148 
223 115 83 147 
224 148 147 89 
225 76 149 105 
226 149 150 105 
227 149 68 150 
228 105 150 91 
229 74 151 134 
230 151 152 134 
231 151 67 152 
232 134 152 89 
233 72 143 154 
234 143 153 154 
235 143 80 153 
236 154 153 90 
237 80 130 153 
238 130 155 153 
239 130 87 155 
240 153 155 90 
241 83 146 147 
242 146 135 147 
243 146 84 135 
244 147 135 89 
245 67 156 152 
246 156 148 152 
247 156 75 148 
248 152 148 89 
249 3 157 131 
250 157 158 131 
251 157 78 158 
252 131 158 88 
253 71 159 160 
254 159 154 160 
255 159 72 154 
256 160 154 90 
257 87 145 155 
258 145 161 155 
259 145 82 161 
260 155 161 90 
261 68 162 150 
262 162 125 150 
263 162 77 125 
264 150 125 91 
265 82 139 164 
266 139 163 164 
267 139 85 163 
268 164 163 93 
269 85 118 163 
270 118 165 163 
271 118 70 165 
272 163 165 93 
273 71 160 167 
274 160 166 167 
275 160 90 166 
276 167 166 93 
277 90 161 166 
278 161 164 166 
279 161 82 164 
280 166 164 93 
281 70 168 165 
282 168 167 165 
283 168 71 167 
284 165 167 93 
285 78 169 170 
286 169 120 170 
287 169 66 120 
288 170 120 92 
289 88 158 100 
290 158 170 100 
291 158 78 170 
292 100 170 92 
2 3 2 128
293 76 191 193 
294 191 192 193 
295 191 184 192 
296 193 192 186 
297 184 191 195 
298 191 194 195 
299 191 76 194 
300 195 194 189 
301 185 196 198 
302 196 197 198 
303 196 181 197 
304 198 197 186 
305 77 199 201 
306 199 200 201 
307 199 174 200 
308 201 200 190 
309 177 202 204 
310 202 203 204 
311 202 176 203 
312 204 203 171 
313 184 205 192 
314 205 198 192 
315 205 185 198 
316 192 198 186 
317 180 206 207 
318 206 196 207 
319 206 181 196 
320 207 196 185 
321 174 208 200 
322 208 209 200 
323 208 175 209 
324 200 209 190 
325 172 210 212 
326 210 211 212 
327 210 179 211 
328 212 211 185 
329 175 213 215 
330 213 214 215 
331 213 176 214 
332 215 214 187 
333 175 215 217 
334 215 216 217 
335 215 187 216 
336 217 216 188 
337 179 218 211 
338 218 207 211 
339 218 180 207 
340 211 207 185 
341 68 162 219 
342 162 201 219 
343 162 77 201 
344 219 201 190 
345 75 114 220 
346 114 193 220 
347 114 76 193 
348 220 193 186 
349 76 149 194 
350 149 221 194 
351 149 68 221 
352 194 221 189 
353 180 218 223 
354 218 222 223 
355 218 179 222 
356 223 222 173 
357 75 224 156 
358 224 225 156 
359 224 182 225 
360 156 225 67 
361 181 226 197 
362 226 227 197 
363 226 182 227 
364 197 227 186 
365 182 224 227 
366 224 220 227 
367 224 75 220 
368 227 220 186 
369 178 228 230 
370 228 229 230 
371 228 172 229 
372 230 229 183 
373 176 202 214 
374 202 231 214 
375 202 177 231 
376 214 231 187 
377 177 232 231 
378 232 233 231 
379 232 178 233 
380 231 233 187 
381 178 230 233 
382 230 234 233 
383 230 183 234 
384 233 234 187 
385 183 229 236 
386 229 235 236 
387 229 172 235 
388 236 235 184 
389 184 235 205 
390 235 212 205 
391 235 172 212 
392 205 212 185 
393 68 237 221 
394 237 238 221 
395 237 188 238 
396 221 238 189 
397 187 234 216 
398 234 239 216 
399 234 183 239 
400 216 239 188 
401 188 239 238 
402 239 240 238 
403 239 183 240 
404 238 240 189 
405 183 236 240 
406 236 195 240 
407 236 184 195 
408 240 195 189 
409 188 237 241 
410 237 219 241 
411 237 68 219 
412 241 219 190 
413 175 217 209 
414 217 241 209 
415 217 188 241 
416 209 241 190 
417 77 109 199 
418 109 242 199 
419 109 2 242 
420 199 242 174 
2 4 2 36
421 179 210 248 
422 210 247 248 
423 210 172 247 
424 248 247 246 
425 244 249 251 
426 249 250 251 
427 249 245 250 
428 251 250 246 
429 172 228 247 
430 228 252 247 
431 228 178 252 
432 247 252 246 
433 178 253 252 
434 253 251 252 
435 253 244 251 
436 252 251 246 
437 245 254 250 
438 254 248 250 
439 254 179 248 
440 250 248 246 
441 243 255 256 
442 255 204 256 
443 255 177 204 
444 256 204 171 
445 179 254 222 
446 254 257 222 
447 254 245 257 
448 222 257 173 
449 178 232 258 
450 232 255 258 
451 232 177 255 
452 258 255 243 
453 244 253 259 
454 253 258 259 
455 253 178 258 
456 259 258 243 
$EndElements
