$MeshFormat
4.1 0 8
$EndMeshFormat
$Entities
9 12 4 0
1 0 0 0 0 
2 0 3.360824742268041 0 0 
3 0.9244444444444444 0 0 0 
4 1.6 0 0 0 
5 1.6 3.309278350515464 0 0 
6 0.4266666666666667 3.876288659793814 0 0 
7 0 5 0 0 
8 0.9125925925925927 4.525773195876289 0 0 
9 1.6 5 0 0 
1 0 0 0 0 0 0 0 2 1 -2 
2 0 0 0 0 0 0 0 2 2 -3 
3 0 0 0 0 0 0 0 2 3 -1 
4 0 0 0 0 0 0 0 2 4 -5 
5 0 0 0 0 0 0 0 2 5 -6 
6 0 0 0 0 0 0 0 2 6 -2 
7 0 0 0 0 0 0 0 2 3 -4 
8 0 0 0 0 0 0 0 2 2 -7 
9 0 0 0 0 0 0 0 2 7 -8 
10 0 0 0 0 0 0 0 2 8 -9 
11 0 0 0 0 0 0 0 2 9 -5 
12 0 0 0 0 0 0 0 2 7 -9 
1 0 0 0 0.9244444444444444 3.360824742268041 0 1 1 3 1 2 3 
2 0 0 0 1.6 3.876288659793814 0 1 2 5 4 5 6 2 7 
3 0 3.309278350515464 0 1.6 5 0 1 3 6 8 9 10 11 5 6 
4 0 4.525773195876289 0 1.6 5 0 1 4 3 12 -10 -9 
$EndEntities
$Nodes
4 973 1 973
2 1 0 225
1
2
3
4
5
6
7
8
9
10
11
12
13
14
15
16
17
18
19
20
21
22
23
24
25
26
27
28
29
30
31
32
33
34
35
36
37
38
39
40
41
42
43
44
45
46
47
48
49
50
51
52
53
54
55
56
57
58
59
60
61
62
63
64
65
66
67
68
69
70
71
72
73
74
75
76
77
78
79
80
81
82
83
84
85
86
87
88
89
90
91
92
93
94
95
96
97
98
99
100
101
102
103
104
105
106
107
108
109
110
111
112
113
114
115
116
117
118
119
120
121
122
123
124
125
126
127
128
129
130
131
132
133
134
135
136
137
138
139
140
141
142
143
144
145
146
147
148
149
150
151
152
153
154
155
156
157
158
159
160
161
162
163
164
165
166
167
168
169
170
171
172
173
174
175
176
177
178
179
180
181
182
183
184
185
186
187
188
189
190
191
192
193
194
195
196
197
198
199
200
201
202
203
204
205
206
207
208
209
210
211
212
213
214
215
216
217
218
219
220
221
222
223
224
225
0 0 0
0 3.360824742268041 0
0.9244444444444444 0 0
0 0.4801178203230714 0
0 0.9602356406456936 0
0 1.440353460968316 0
0 1.920471281292214 0
0 2.400589101617444 0
0 2.880706921942743 0
0.132063492063174 2.880706921945192 0
0.2641269841262949 2.400589101622535 0
0.3961904761894006 1.920471281299934 0
0.5282539682528795 1.440353460975976 0
0.6603174603167342 0.9602356406506516 0
0.7923809523805897 0.4801178203253243 0
0.462222222223413 0 0
0.1440955157598838 2.160530191455996 0
0.3461217703730871 0.7181385604483846 0
0.3216965980985935 1.118976646429857 0
0.2149400712683533 1.680412371132227 0
0.320144988995418 0.3356748402193561 0
0.6273015873020014 0.2400589101626621 0
0.8584126984125171 0.2400589101626621 0
0.6933333333339287 0 0
0.3911836056094155 0.1678374201096781 0
0.5562629706880038 0.4078963302723402 0
0 0.7201767304843825 0
0.1730608851865436 0.839187100547039 0
0.1730608851865436 0.599128190385728 0
0.1608482990492968 1.039606143537775 0
0.3339091842358403 0.9185576034391207 0
0.4622222222211401 1.680412371137955 0
0.3715970197606164 1.560382916054102 0
0.305565273728877 1.800441826216081 0
0.2641269841264398 1.440353460972146 0
0.1074700356341766 1.560382916050271 0
0 1.680412371130265 0
0.1074700356341766 1.800441826212221 0
0.4249752831757365 1.279665053702916 0
0.1608482990492968 1.279665053699087 0
0.1320634920631474 2.400589101619989 0
0.2041112499430893 2.280559646539265 0
0.0720477578799419 2.28055964653672 0
0.5692513613768384 0.5991281903868545 0
0.3331333796842526 0.5269067003338703 0
0.1980952380947003 1.920471281296074 0
0.0720477578799419 2.040500736374105 0
0.2701429959746422 2.040500736377965 0
0.726349206348662 0.7201767304879879 0
0.5032196153449107 0.8391871005495182 0
0 1.200294550807005 0
0 0.2400589101615357 0
0.160072494497709 0.4078963302712137 0
0.160072494497709 0.1678374201096781 0
0.4910070292076639 1.039606143540254 0
0.2311111111117065 0 0
0.5942857142848068 1.200294550813314 0
0 2.160530191454829 0
0.3301587301578477 2.160530191461234 0
0.066031746031587 2.880706921943967 0
0 3.120765832105392 0
0.066031746031587 3.120765832106617 0
0.066031746031587 2.640648011781318 0
0 2.640648011780093 0
0.1980952380947344 2.640648011783863 0
0.5447619047627072 0.120029455081331 0
0.660317460317965 0.120029455081331 0
0.5777777777786708 0 0
0.7428571428572592 0.2400589101626621 0
0.7758730158732229 0.120029455081331 0
0.7098412698412955 0.3600883652439932 0
0.8253968253965533 0.3600883652439932 0
0.8914285714284808 0.120029455081331 0
0.8088888888891865 0 0
0.5917822789950026 0.3239776202175011 0
0.6743219615342968 0.4440070752988322 0
0.5092425964557085 0.2039481651361701 0
0.4737232881487097 0.2878668751910091 0
0.4267029139164142 0.08391871005483904 0
0.3556642973024168 0.2517561301645171 0
0.4382039798417109 0.3717855852458481 0
0 0.6001472754037269 0
0.08653044259327181 0.6596524604350552 0
0.08653044259327181 0.5396230053543997 0
0.08653044259327181 0.7796819155157108 0
0.1730608851865436 0.7191576454663835 0
0 0.840206185565038 0
0.08653044259327181 0.8997113705963663 0
0.2595913277798154 0.7786628304977119 0
0.2595913277798154 0.6586333754170564 0
0.253485034711192 0.8788723519930799 0
0.3400154773044637 0.8183480819437527 0
0.1669545921179202 0.939396622042407 0
0.2473787416425686 0.9790818734884479 0
0.08042414952464839 0.9999208920917343 0
0.2412724485739451 1.079291394983816 0
0.3278028911672169 1.018767124934489 0
0.4292063492052703 1.800441826218945 0
0.3838937479750085 1.740427098677018 0
0.3508778749591388 1.860456553758008 0
0.4169096209908782 1.620397643596029 0
0.3385811467447467 1.680412371135092 0
0.4952380952370098 1.560382916056966 0
0.449925494006748 1.500368188515039 0
0.2932685455144848 1.620397643593165 0
0.2602526724986152 1.740427098674154 0
0.3961904761896596 1.440353460974061 0
0.3178620019435281 1.500368188513124 0
0.1857985098803082 1.500368188511208 0
0.2395335276973965 1.560382916052186 0
0.1320634920632199 1.440353460970231 0
0.0537350178170883 1.500368188509293 0
0.161205053451265 1.620397643591249 0
0 1.56038291604929 0
0.0537350178170883 1.620397643590268 0
0.0537350178170883 1.740427098671243 0
0.1074700356341766 1.680412371131246 0
0 1.80044182621124 0
0.0537350178170883 1.860456553752218 0
0.161205053451265 1.740427098672224 0
0.2124876415878683 1.360009257335617 0
0.08042414952464839 1.360009257333701 0
0.3445511336510881 1.360009257337531 0
0.2929117911125166 1.279665053701001 0
0.476614625714308 1.360009257339446 0
0.373335940637165 1.199320850066386 0
0.2412724485739451 1.199320850064472 0
0.0660317460315737 2.400589101618716 0
0.1020556249715447 2.340574374078354 0
0.03602387893997095 2.340574374077082 0
0.1680873710031184 2.340574374079627 0
0.1380795039115156 2.280559646537992 0
0.1980952380947211 2.400589101621262 0
0.2341191170346921 2.3405743740809 0
0.1741033828514865 2.22054491899763 0
0.1080716368199129 2.220544918996358 0
0.4576865658749628 0.6586333754176196 0
0.4511923705305455 0.5630174453603625 0
0.3396275750286699 0.6225226303911275 0
0.5627571660324211 0.5035122603295974 0
0.4446981751861282 0.4674015153031053 0
0.6808161568787141 0.5396230053560894 0
0.3266391843398353 0.4312907702766132 0
0.2971428571420505 1.920471281298004 0
0.2341191170346713 1.98048600883702 0
0.3331667360820214 1.98048600883895 0
0.1350714979873211 1.98048600883509 0
0.171095376927292 2.040500736376035 0
0.09904761904735015 1.920471281294144 0
0.03602387893997095 1.98048600883316 0
0.1080716368199129 2.100515463915051 0
0.207119255867263 2.100515463916981 0
0.6933333333326981 0.8402061855693197 0
0.6147844108467864 0.7796819155187531 0
0.5817685378308224 0.8997113706000849 0
0.6478002838627501 0.6596524604374212 0
0.5362354883608745 0.7191576454681863 0
0.7593650793646258 0.6001472754066561 0
0.4246706928589989 0.7786628304989514 0
0 1.080265095726349 0
0.08042414952464839 1.11995034717239 0
0.08042414952464839 1.239979802253046 0
0.1608482990492968 1.159635598618431 0
0 1.32032400588766 0
0 0.1200294550807678 0
0.0800362472488545 0.2039481651356069 0
0.0800362472488545 0.08391871005483904 0
0.0800362472488545 0.3239776202163747 0
0.160072494497709 0.2878668751904459 0
0 0.3600883652423035 0
0.0800362472488545 0.4440070752971426 0
0.2401087417465635 0.3717855852452849 0
0.2401087417465635 0.2517561301645171 0
0.4971133222762873 0.9393966220448861 0
0.5756622447621991 0.9999208920954528 0
0.4185643997903755 0.8788723519943195 0
0.4124581067217521 0.9790818734896873 0
0.4063518136531287 1.079291394985055 0
0.3466666666675597 0 0
0.311147358360561 0.08391871005483904 0
0.1955918028047078 0.08391871005483904 0
0.2756280500535623 0.1678374201096781 0
0.1155555555558533 0 0
0.5612698412688432 1.320324005894645 0
0.5096304987302717 1.239979802258115 0
0.5426463717462353 1.119950347176784 0
0.4579911561917002 1.159635598621585 0
0.6273015873007706 1.080265095731983 0
0.1527826368644385 1.860456553754148 0
0.2518302559117886 1.860456553756078 0
0.2065176546815268 1.800441826214151 0
0.1665666898421263 0.5035122603284709 0
0.2530971324353981 0.5630174453597991 0
0.2466029370909808 0.467401515302542 0
0 2.040500736373521 0
0.03602387893997095 2.100515463914467 0
0.03602387893997095 2.220544918995774 0
0.0720477578799419 2.160530191455412 0
0 2.280559646536136 0
0.2971428571420713 2.280559646541884 0
0.2671349900504685 2.22054491900025 0
0.3001508630662449 2.100515463919599 0
0.2371271229588657 2.160530191458615 0
0.3631746031736242 2.040500736380584 0
0.09904761904738049 2.880706921944579 0
0.066031746031587 3.000736377025292 0
0.09904761904738049 3.000736377025905 0
0.0330158730157935 3.00073637702468 0
0.0330158730157935 3.120765832106005 0
0.0330158730157935 2.880706921943355 0
0 3.000736377024068 0
0 3.240795287186717 0
0.0330158730157935 3.240795287187329 0
0.0330158730157935 2.76067746686203 0
0 2.760677466861418 0
0.066031746031587 2.760677466862642 0
0.0330158730157935 2.640648011780705 0
0.09904761904738049 2.760677466863255 0
0.0330158730157935 2.520618556699381 0
0 2.520618556698769 0
0.1650793650789542 2.760677466864528 0
0.1320634920631607 2.640648011782591 0
0.1650793650789409 2.520618556701926 0
0.0990476190473672 2.520618556700653 0
0.2311111111105146 2.520618556703199 0
2 2 0 406
226
227
228
229
230
231
232
233
234
235
236
237
238
239
240
241
242
243
244
245
246
247
248
249
250
251
252
253
254
255
256
257
258
259
260
261
262
263
264
265
266
267
268
269
270
271
272
273
274
275
276
277
278
279
280
281
282
283
284
285
286
287
288
289
290
291
292
293
294
295
296
297
298
299
300
301
302
303
304
305
306
307
308
309
310
311
312
313
314
315
316
317
318
319
320
321
322
323
324
325
326
327
328
329
330
331
332
333
334
335
336
337
338
339
340
341
342
343
344
345
346
347
348
349
350
351
352
353
354
355
356
357
358
359
360
361
362
363
364
365
366
367
368
369
370
371
372
373
374
375
376
377
378
379
380
381
382
383
384
385
386
387
388
389
390
391
392
393
394
395
396
397
398
399
400
401
402
403
404
405
406
407
408
409
410
411
412
413
414
415
416
417
418
419
420
421
422
423
424
425
426
427
428
429
430
431
432
433
434
435
436
437
438
439
440
441
442
443
444
445
446
447
448
449
450
451
452
453
454
455
456
457
458
459
460
461
462
463
464
465
466
467
468
469
470
471
472
473
474
475
476
477
478
479
480
481
482
483
484
485
486
487
488
489
490
491
492
493
494
495
496
497
498
499
500
501
502
503
504
505
506
507
508
509
510
511
512
513
514
515
516
517
518
519
520
521
522
523
524
525
526
527
528
529
530
531
532
533
534
535
536
537
538
539
540
541
542
543
544
545
546
547
548
549
550
551
552
553
554
555
556
557
558
559
560
561
562
563
564
565
566
567
568
569
570
571
572
573
574
575
576
577
578
579
580
581
582
583
584
585
586
587
588
589
590
591
592
593
594
595
596
597
598
599
600
601
602
603
604
605
606
607
608
609
610
611
612
613
614
615
616
617
618
619
620
621
622
623
624
625
626
627
628
629
630
631
1.6 0 0
1.6 3.309278350515464 0
0.4266666666666667 3.876288659793814 0
1.6 0.4727540500727735 0
1.6 0.9455081001451087 0
1.6 1.418262150217299 0
1.6 1.891016200290938 0
1.6 2.363770250365746 0
1.6 2.836524300440407 0
1.208888888889862 3.49828178694111 0
0.8177777777789402 3.687285223367136 0
0.2133333333338552 3.618556701031558 0
1.262222222221333 0 0
0.5831221904056101 2.774256737646207 0
1.192464312324972 2.114701706006509 0
0.4136138013220868 3.216373406033559 0
0.9652058998612647 1.306596083436888 0
0.8419209427327313 3.226382205966053 0
1.100350526772817 2.696270652236743 0
1.149813123909179 0.8056601366000841 0
0.7340389456362364 2.286657672543354 0
0.8468522814088029 1.787236563252796 0
1.193328642344369 0.3324848386724281 0
1.270232071679082 3.113347459219955 0
1.256996119177969 1.616616304730938 0
0.542662504366856 3.524977239238424 0
1.431111111110667 0.2363770250363865 0
1.337454221472773 1.181885125181204 0
1.396232156162486 2.239235978186128 0
1.350175263386409 2.530020451301245 0
1.146407419548895 2.405486179121626 0
1.374906561954589 0.6392070933364288 0
1.171570883126774 0.5690724876362561 0
1.396664321172185 0.4026194443726008 0
1.312219876727518 0.2844309318544073 0
1.515555555555334 0.35456553755458 0
1.6 2.600147275403077 0
1.350175263386409 2.766397476338575 0
0.8298493602558358 3.456833714666595 0
0.6802201410728981 3.60613123130278 0
0.6922917235497936 3.375679722602238 0
0.6277673720274091 3.221377805999806 0
0.4781381528444714 3.370675322635992 0
0.1066666666669276 3.489690721649799 0
0.2068069006610434 3.2885990741508 0
0.313473567327971 3.417465053532559 0
0.9171947362045267 2.491464162390049 0
0.9632516289806042 2.200679689274931 0
1.013333333334401 3.592783505154123 0
1.025404915811297 3.362331996453582 0
0.2728386466926304 3.048540163989376 0
1.6 0.709131075108941 0
1.374906561954589 0.8755841183725963 0
1.6 0.2363770250363867 0
1.515555555555334 0.1181885125181932 0
0.4983679958638484 2.995315071839883 0
0.7125215665691707 3.00031947180613 0
0.8417363585892136 2.735263694941475 0
0.6585805680209232 2.53045720509478 0
0.3779979188503556 3.571766970134991 0
0.5651147109128185 2.103564476921644 0
0.6215213787991017 1.853853922276365 0
0.7904456135225196 2.036947117898075 0
0.3575928412343921 2.827481829795699 0
1.019658296866887 1.950969134629652 0
1.058886543394407 0.1662424193362141 0
0.9928547973624793 0.4063013294988762 0
0.9710970381448842 0.6428889784627042 0
1.435116035839541 2.974935879830181 0
1.18529129922595 2.904809055728349 0
0.8127616800889994 1.13341586204377 0
0.7467299340570721 1.373474772206432 0
0.9050652921129565 0.8829478886253679 0
1.057509511885222 1.056128110018486 0
0.4236245872659525 2.587422919634371 0
0.4990829648812656 2.343623387082944 0
1.6 2.127393225328342 0
1.396232156162486 2.002858953148723 0
0.6875531248308412 1.613795012114386 0
0.9060290906350338 1.546916323344842 0
0.9711357347527743 2.961326429101398 0
1.056076507205907 3.169864832593004 0
1.239560480284472 3.305814623080533 0
0.6222222222228034 3.781786941580475 0
0.4846645855167614 3.700632949516119 0
1.6 3.072901325477936 0
1.435116035839541 3.21131290486771 0
1.224730215751471 1.865659005368724 0
1.428498059588985 1.753816252510938 0
1.051924200293386 1.701926433991867 0
1.404444444444931 3.403780068728287 0
1.093333333332889 0 0
1.227775432282851 0.1662424193362141 0
1.6 1.654639175254119 0
1.428498059588985 1.517439227474119 0
1.111101009519617 1.461606194083913 0
0.320000000000261 3.747422680412686 0
1.243633672690976 0.993772630890644 0
1.151330060667019 1.244240604309046 0
1.468727110736387 1.063696612663156 0
1.297225170325371 1.399250714956071 0
1.468727110736387 1.300073637699251 0
1.6 1.181885125181204 0
1.431111111110666 0 0
1.346666666666 0.1181885125181932 0
1.294348234243729 2.176968842096318 0
1.271319787855691 2.322361078653877 0
1.169435865936933 2.260093942564068 0
1.373203709774447 2.384628214743687 0
1.248291341467652 2.467753315211436 0
1.498116078081243 2.301503114275937 0
1.475087631693205 2.446895350833496 0
1.225262895079613 2.613145551768994 0
1.123378973160856 2.550878415679184 0
1.487453280977295 0.5559805717046011 0
1.385785441563387 0.5209132688545148 0
1.498332160586092 0.4376867472226871 0
1.273238722540682 0.6041397904863424 0
1.284117602149479 0.4858459660044284 0
1.262359842931884 0.7224336149682564 0
1.160692003517976 0.6873663121181701 0
1.182449762735571 0.4507786631543421 0
1.294996481758277 0.3675521415225145 0
1.456109938363759 0.3785924909635904 0
1.557777777777667 0.4136597938136767 0
1.354442098949852 0.3435251881135041 0
1.413887716141426 0.3194982347044937 0
1.252774259535943 0.3084578852634177 0
1.371665493919092 0.2604039784453969 0
1.473333333333001 0.2954712812954832 0
1.6 2.481958762884411 0
1.475087631693205 2.565083863352161 0
1.475087631693205 2.683272375870826 0
1.350175263386409 2.64820896381991 0
1.6 2.718335787921742 0
1.475087631693205 2.801460888389491 0
1.225262895079613 2.731334064287659 0
0.8358851514942836 3.341607960316324 0
0.7610705419028148 3.416256718634417 0
0.7671063331412624 3.301030964284146 0
0.7550347506643669 3.531482472984687 0
0.6862559323113459 3.490905476952509 0
0.823813569017388 3.572059469016866 0
0.7489989594259192 3.646708227334958 0
0.6114413227198771 3.565554235270602 0
0.6174771139583248 3.450328480920331 0
0.520690586674748 3.218875606016683 0
0.5529527624359403 3.296026564317899 0
0.4458759770832791 3.293524364334775 0
0.6600295477886013 3.298528764301022 0
0.5852149381971326 3.373177522619115 0
0.7348441573800701 3.22388000598293 0
0.5104003286056638 3.447826280937208 0
0.1600000000003914 3.554123711340679 0
0.2100701169974493 3.453577887591179 0
0.2634034503309131 3.518010877282058 0
0.1567367836639855 3.3891448979003 0
0.2601402339945072 3.353032063841679 0
0.0533333333334638 3.42525773195892 0
0.1034034503305217 3.32471190820942 0
0.3102103509915651 3.25248624009218 0
0.3635436843250289 3.316919229783059 0
1.05482952426475 2.303082934198279 0
1.077857970652788 2.15769069764072 0
1.031801077876711 2.448475170755838 0
0.9402231825925655 2.34607192583249 0
1.008772631488672 2.593867407313396 0
0.8256168409203816 2.389060917466701 0
0.8486452873084203 2.243668680909142 0
1.111111111112131 3.545532646047616 0
1.019369124572849 3.477557750803852 0
1.11714690235058 3.430306891697346 0
0.9215913467951184 3.524808609910359 0
0.9276271380335663 3.409582855560088 0
0.9155555555566706 3.64003436426063 0
0.9336629292720142 3.294357101209818 0
0.1364193233463152 3.204682453128709 0
0.1694351963621087 3.084652998047996 0
0.2398227736768369 3.168569619070088 0
0.2024510693779022 2.964623542967284 0
0.3432262240073586 3.132456785011468 0
1.6 0.5909425625908573 0
1.487453280977295 0.6741690842226848 0
1.487453280977295 0.7923575967407687 0
1.374906561954589 0.7573956058545126 0
1.6 0.8273195876270248 0
1.487453280977295 0.9105461092588525 0
1.262359842931884 0.8406221274863401 0
1.6 0.1181885125181933 0
1.557777777777667 0.1772827687772899 0
1.557777777777667 0.0590942562590966 0
1.557777777777667 0.2954712812954833 0
1.515555555555334 0.2363770250363866 0
1.6 0.3545655375545801 0
1.473333333333001 0.1772827687772899 0
0.4559908985929676 3.105844238936721 0
0.5630676839456288 3.108346438919845 0
0.6054447812165096 2.997817271823006 0
0.6701444692982899 3.110848638902968 0
0.5407450931347293 2.884785904743045 0
0.6478218784873904 2.887288104726168 0
0.7772212546509509 3.113350838886092 0
0.9710434426810153 2.715767173589109 0
0.8794655473968702 2.613363928665762 0
0.7501584633050684 2.632860450018128 0
0.7878876521127249 2.510960683742415 0
0.7124292744974119 2.754760216293841 0
0.6208513792132666 2.652356971370494 0
0.6963097568285799 2.408557438819067 0
0.3457357430891633 3.494616011833775 0
0.2956656260921054 3.595161835583275 0
0.3958058600862212 3.394070188084275 0
0.4280680358474135 3.471221146385491 0
0.4603302116086058 3.548372104686707 0
0.6495768282745275 2.195111074732499 0
0.6777801622176691 2.070255797409859 0
0.762242279579378 2.161802395220715 0
0.5933180448559601 1.978709199599004 0
0.7059834961608107 1.94540052008722 0
0.4806525935511096 2.012017879110789 0
0.5088559274942512 1.88716260178815 0
0.7341868301039522 1.820545242764581 0
0.8186489474656613 1.912091840575435 0
0.244828166648783 2.854094375870446 0
0.3152157439635113 2.938010996892538 0
0.4279804185491203 2.911398450817791 0
0.3856033212782394 3.021927617914629 0
0.4703575158200011 2.800869283720953 0
0.9914549629237457 2.075824411952292 0
1.10606130459593 2.03283542031808 0
0.8768486212515619 2.118813403586503 0
0.9050519551947034 1.993958126263863 0
0.9332552891378449 1.869102848941224 0
0.9256337478874982 0.3231801198307692 0
0.8926178748715345 0.4432095749121002 0
0.9586496209034621 0.2031506647494381 0
1.025870670378443 0.2862718744175451 0
0.9916654939194257 0.08312120966810704 0
1.126107592869388 0.2493636290043211 0
1.093091719853424 0.3693930840856522 0
1.060455081027031 0.7242745575313941 0
1.071333960635829 0.6059807330494802 0
0.9819759177536818 0.5245951539807903 0
1.082212840244626 0.4876869085675661 0
0.881738995262737 0.5615033993940143 0
1.267733281306179 2.835603266033462 0
1.142820912999384 2.800539853982546 0
1.392645649612975 2.870666678084378 0
1.310203667532746 2.939872467779265 0
1.517558017919771 2.905730090135294 0
1.352674053759312 3.044141669525068 0
1.227761685452516 3.009078257474152 0
0.6705078241709395 1.286884661509873 0
0.6374919511549758 1.406914116591204 0
0.7035236971869031 1.166855206428542 0
0.7797458070730358 1.253445317125101 0
0.7365395702028668 1.046825751347211 0
0.8889837899751321 1.220005972740329 0
0.8559679169591684 1.34003542782166 0
0.9351355959871107 1.094771986031128 0
1.011357705873243 1.181362096727687 0
0.858913486100978 1.008181875334569 0
0.9812874019990893 0.969537999321927 0
0.7826913762148453 0.9215917646380097 0
1.027439208011068 0.8443040126127259 0
1.1036613178972 0.9308941233092851 0
0.2778440396645633 2.734064920789781 0
0.3108599126803434 2.614035465709117 0
0.3906087142501723 2.707452374715035 0
0.3438757856961236 2.494006010628453 0
0.5033733888357813 2.680839828640289 0
0.4146208475195566 2.252076789272089 0
0.3816049745037802 2.372106244352739 0
0.4476367205353331 2.132047334191439 0
0.532098837897042 2.223593932002294 0
0.616560955258751 2.315140529813149 0
1.6 2.00920471280964 0
1.498116078081243 2.065126089238532 0
1.498116078081243 1.94693757671983 0
1.498116078081243 2.183314601757235 0
1.396232156162486 2.121047465667425 0
1.6 2.245581737847044 0
1.294348234243729 2.058780329577616 0
0.541871800510121 1.76713314670716 0
0.5748876735259907 1.647103691626171 0
0.6545372518149715 1.733824467195376 0
0.6079035465418603 1.527074236545181 0
0.7672027031198221 1.700515787683591 0
0.5411025776434378 2.558940062364575 0
0.4613537760736091 2.465523153358657 0
0.5788317664510945 2.437040296088862 0
0.8157072492308093 0.801562309556678 0
0.848723122246773 0.6815328544753461 0
0.9380811651289204 0.762918433544036 0
0.7171415294439567 1.493634892160409 0
0.8263795123460529 1.460195547775637 0
0.7967911077329375 1.580355667729614 0
0.9356174952481493 1.426756203390865 0
0.8764406860219183 1.667076443298819 0
0.8418286506609725 2.980822950453764 0
0.9065283387427527 3.093854317533726 0
0.7771289625791922 2.867791583373802 0
0.906436046670994 2.848295062021436 0
1.035743130762796 2.82879854066907 0
1.132482698047884 3.334073309767057 0
1.224224684587167 3.402048205010821 0
1.040740711508602 3.266098414523293 0
1.14781849374519 3.237839727836769 0
0.9489987249693193 3.198123519279529 0
1.163154289442494 3.141606145906479 0
1.254896275981777 3.209581041150244 0
0.7200000000008718 3.734536082473805 0
0.6512211816478508 3.693959086441628 0
0.5534434038697824 3.741209945548297 0
0.5824423632948297 3.653382090409449 0
0.524444444444735 3.829037800687145 0
0.455665626091714 3.788460804654966 0
0.5136635449418088 3.612805094377272 0
1.6 2.954712812959172 0
1.517558017919771 3.023918602654058 0
1.517558017919771 3.142107115172823 0
1.435116035839541 3.093124392348946 0
1.6 3.1910898379967 0
1.517558017919771 3.260295627691587 0
1.352674053759312 3.162330182043832 0
1.412365107875735 1.87833760282983 0
1.514249029794493 1.822416226400938 0
1.310481185956978 1.934258979258723 0
1.326614137670228 1.809737628939831 0
1.208597264038222 1.990180355687617 0
1.24086316746472 1.741137655049831 0
1.342747089383477 1.685216278620938 0
1.122194256309179 1.908314069999188 0
1.035791248580137 1.826447784310759 0
1.138327208022428 1.783792719680295 0
0.9493882408510944 1.744581498622332 0
1.154460159735677 1.659271369361403 0
1.013606120979341 3.065595630847201 0
1.078213516989362 2.933067742414873 0
1.120683903215928 3.037336944160677 0
1.502222222222465 3.356529209621876 0
1.419780240142236 3.307546486797999 0
1.322002462364702 3.35479734590441 0
1.337338258062006 3.258563763974122 0
1.306666666667397 3.451030927834698 0
1.008888888888667 0 0
1.076109938363648 0.08312120966810704 0
1.16055438280787 0.08312120966810704 0
1.143330987838629 0.1662424193362141 0
1.177777777777111 0 0
1.244998827252092 0.08312120966810704 0
1.21055203731361 0.2493636290043211 0
1.6 1.536450662735709 0
1.514249029794493 1.586039201364119 0
1.514249029794493 1.467850688845709 0
1.514249029794493 1.704227713882529 0
1.428498059588985 1.635627739992529 0
1.6 1.772827687772529 0
1.342747089383477 1.567027766102528 0
0.9789766454642099 1.624421378668354 0
1.008565050077325 1.504261258714378 0
1.081512604906501 1.58176631403789 0
1.038153454690441 1.3841011387604 0
1.184048564348793 1.539111249407425 0
0.3733333333334639 3.81185567010325 0
0.4023322927585112 3.724027814964403 0
0.3489989594253083 3.659594825273838 0
0.4313312521835585 3.636199959825555 0
0.2666666666670581 3.682989690722122 0
1.10441978627612 1.150184357163766 0
1.058267980264142 1.275418343872967 0
1.150571592288099 1.024950370454565 0
1.197481866678997 1.119006617599845 0
1.196723398300077 0.8997163837453641 0
1.290543947081874 1.087828878035924 0
1.244392141069896 1.213062864745125 0
1.309270117322783 0.9346783746316202 0
1.421816836345488 0.9696403655178761 0
1.356180391713682 1.0287346217769 0
1.534363555368194 1.004602356404132 0
1.40309066610458 1.12279086892218 0
1.448612585162686 1.408756432586685 0
1.534363555368194 1.359167893958275 0
1.362861614957178 1.458344971215095 0
1.382976140530879 1.349662176327661 0
1.27711064475167 1.507933509843504 0
1.317339695899072 1.290567920068638 0
1.40309066610458 1.240979381440227 0
1.204163089922494 1.430428454519992 0
1.131215535093318 1.35292339919648 0
1.224277615496195 1.321745659632558 0
1.6 1.063696612663156 0
1.534363555368194 1.12279086892218 0
1.534363555368194 1.240979381440227 0
1.468727110736387 1.181885125181203 0
1.6 1.300073637699251 0
1.346666666666 0 0
1.388888888888333 0.0590942562590966 0
1.304444444443666 0.0590942562590966 0
1.473333333333 0.0590942562590966 0
1.431111111110667 0.1181885125181932 0
1.515555555555333 0 0
1.388888888888334 0.1772827687772899 0
1.269997654505184 0.2253366755953107 0
1.287221049474426 0.1422154659272036 0
1.329443271696759 0.2013097221863003 0
2 3 0 272
632
633
634
635
636
637
638
639
640
641
642
643
644
645
646
647
648
649
650
651
652
653
654
655
656
657
658
659
660
661
662
663
664
665
666
667
668
669
670
671
672
673
674
675
676
677
678
679
680
681
682
683
684
685
686
687
688
689
690
691
692
693
694
695
696
697
698
699
700
701
702
703
704
705
706
707
708
709
710
711
712
713
714
715
716
717
718
719
720
721
722
723
724
725
726
727
728
729
730
731
732
733
734
735
736
737
738
739
740
741
742
743
744
745
746
747
748
749
750
751
752
753
754
755
756
757
758
759
760
761
762
763
764
765
766
767
768
769
770
771
772
773
774
775
776
777
778
779
780
781
782
783
784
785
786
787
788
789
790
791
792
793
794
795
796
797
798
799
800
801
802
803
804
805
806
807
808
809
810
811
812
813
814
815
816
817
818
819
820
821
822
823
824
825
826
827
828
829
830
831
832
833
834
835
836
837
838
839
840
841
842
843
844
845
846
847
848
849
850
851
852
853
854
855
856
857
858
859
860
861
862
863
864
865
866
867
868
869
870
871
872
873
874
875
876
877
878
879
880
881
882
883
884
885
886
887
888
889
890
891
892
893
894
895
896
897
898
899
900
901
902
903
0 5 0
0.9125925925925927 4.525773195876289 0
1.6 5 0
0 3.770618556699729 0
0 4.180412371132111 0
0 4.590206185565622 0
0.304197530863325 4.841924398625883 0
0.6083950617276133 4.683848797251265 0
1.256296296295355 4.762886597937495 0
1.6 4.577319587629908 0
1.6 4.154639175259988 0
1.6 3.731958762887726 0
0.6311806861748144 4.354480868209774 0
0.927081245875217 4.184409420049179 0
1.254264686180881 4.352126626280048 0
1.22961798232212 3.907731780927433 0
0.3253335149947153 4.499707225147968 0
0.3643637248399498 4.163872143919593 0
0.6424456682125175 4.052217504133495 0
0.1756730396648099 3.97551546391592 0
0.8724295118270786 3.935847321708158 0
1.078349614098669 4.046070600488306 0
1.02369788005053 3.797508502147284 0
0.7301117229957288 3.869751363750315 0
0.7847634570438673 4.118313462091336 0
1.427132343090441 4.253382900770019 0
1.41480899116106 4.031185478093711 0
1.2419413342515 4.129929203603741 0
0.1066666666669276 3.694587628865643 0
0.08783651983240495 3.873067010307825 0
0.1945031864993326 3.797036082473739 0
0.1520987654316625 4.716065292095752 0
0 4.795103092782811 0
0.1520987654316625 4.920962199312942 0
1.090672966028049 4.268268023164614 0
1.6 4.365979381444948 0
1.427132343090441 4.464723106954978 0
0 3.97551546391592 0
0.08783651983240495 4.077963917524015 0
1.084444444443974 4.644329896906892 0
1.255280491238118 4.557506612108772 0
1.083428639386737 4.438949911078168 0
0 4.385309278348867 0
0.1626667574973577 4.544956705356794 0
0.1626667574973577 4.34005979814004 0
0.3448486199173325 4.33178968453378 0
0.1821818624199749 4.172142257525852 0
1.428148148147677 4.670103092783702 0
0.3011698531657383 3.925902061854867 0
1.219253435605991 3.703006783934272 0
0.5345561674395921 3.964253081963654 0
1.428148148147677 4.881443298968748 0
1.6 4.788659793814954 0
1.404444444444931 3.615120274914418 0
1.6 3.520618556701595 0
1.6 3.943298969073857 0
1.41480899116106 3.819845271907579 0
0.7604938271601029 4.604810996563777 0
0.7718866393837036 4.440127032043032 0
0.6197878739512138 4.519164832730519 0
0.3147655229290202 4.670815811886925 0
0.4562962962954691 4.762886597938574 0
0.4668642883611643 4.591778011199617 0
0.4782571005847648 4.427094046678871 0
0.9198369192339049 4.355091307962734 0
0.7791309660250156 4.269445144129477 0
0.3955151957533082 4.020080401856704 0
0.5034046965262337 4.108044824026544 0
0.4977722055073821 4.259176506064684 0
0.6368131771936659 4.203349186171634 0
0.2700183822523798 4.069693803917756 0
0 3.565721649483885 0
0.8451036448030094 3.811566272537647 0
0.9480636959388044 3.866677911927721 0
0.9207378289147352 3.74239686275721 0
0.9753895629628738 3.990958961098232 0
1.0510237470746 3.921789551317794 0
0.8997553788511479 4.060128370878669 0
1.002715429986943 4.115240010268742 0
1.153983798210394 3.976901190707869 0
1.126657931186325 3.852620141537359 0
0.828596484435473 4.027080391899747 0
0.8559223514595422 4.151361441070257 0
0.8012706174114037 3.902799342729237 0
0.757437590019798 3.994032412920826 0
0.7739447503873345 3.778518293558726 0
0.6862786956041231 3.960984433941905 0
0.7136045626281924 4.085265483112416 0
1.340698514635661 4.302754763525034 0
1.33453683867097 4.19165605218688 0
1.248103010216191 4.241027914941895 0
1.42097066712575 4.142284189431865 0
1.32837516270628 4.080557340848726 0
1.513566171545221 4.204011038015004 0
1.50740449558053 4.092912326676849 0
1.32221348674159 3.969458629510572 0
1.23577965828681 4.018830492265587 0
0.1600000000003914 3.6565721649486 0
0.1505849265831301 3.745811855669691 0
0.2039182599165939 3.707796391752648 0
0.09725159324966628 3.783827319586734 0
0.1411698531658688 3.835051546390782 0
0.0533333333334638 3.732603092782686 0
0.04391825991620248 3.821842783503777 0
0.1317547797486074 3.924291237111873 0
0.1850881130820712 3.886275773194829 0
0.2281481481474938 4.778994845360818 0
0.1520987654316625 4.818513745704347 0
0.2281481481474938 4.881443298969413 0
0.07604938271583125 4.755584192439281 0
0.07604938271583125 4.858032646047876 0
0.07604938271583125 4.653135738830687 0
0 4.692654639174217 0
0 4.897551546391405 0
0.07604938271583125 4.960481099656471 0
1.008877105951633 4.226338721606897 0
1.084511290063359 4.157169311826459 0
1.166307150139775 4.199098613384177 0
1.160145474175085 4.087999902046024 0
1.172468826104465 4.310197324722331 0
1.6 4.471649484537428 0
1.513566171545221 4.415351244199963 0
1.513566171545221 4.521021347292443 0
1.513566171545221 4.309681141107483 0
1.427132343090441 4.359053003862499 0
1.6 4.260309278352468 0
1.340698514635661 4.408424866617514 0
0 3.873067010307825 0
0.04391825991620248 3.924291237111873 0
0.04391825991620248 4.026739690719968 0
0.08783651983240495 3.97551546391592 0
0 4.077963917524015 0
0.04391825991620248 4.129188144328063 0
0.1317547797486074 4.026739690719968 0
0.9985185185182834 4.58505154639159 0
1.083936541915355 4.54163990399253 0
0.9980106159896649 4.482361553477228 0
1.169862467841046 4.600918254507832 0
1.169354565312427 4.49822826159347 0
1.170370370369664 4.703608247422194 0
1.255788393766736 4.660196605023133 0
1.254772588709499 4.454816619194411 0
1.168846662783809 4.395538268679108 0
0 4.282860824740489 0
0.08133337874867885 4.362684538244453 0
0.08133337874867885 4.260236084636076 0
0.08133337874867885 4.465132991852831 0
0.1626667574973577 4.442508251748418 0
0 4.487757731957244 0
0.08133337874867885 4.567581445461208 0
0.2440001362460365 4.522331965252381 0
0.2440001362460365 4.419883511644004 0
0.1724243099586663 4.256101027832946 0
0.09109093120998744 4.176277314328981 0
0.2537576887073451 4.33592474133691 0
0.2635152411686537 4.251965971029817 0
0.3350910674560239 4.415748454840874 0
0.3546061723786411 4.247830914226687 0
0.2732727936299623 4.168007200722723 0
1.342222222221516 4.716494845360598 0
1.341714319692898 4.613804852446236 0
1.427640245619059 4.56741309986934 0
1.341206417164279 4.511114859531875 0
1.514074074073839 4.623711340206805 0
0.3105849265829996 3.836662371133777 0
0.3639182599162025 3.90109536082434 0
0.2572515932497968 3.772229381443212 0
0.2478365198325355 3.861469072164303 0
0.2384214464152741 3.950708762885394 0
1.116293384470196 3.647895144544197 0
1.214071162247926 3.600644285437691 0
1.018515606692465 3.695146003650703 0
1.121475657828261 3.750257643040778 0
1.224435708964056 3.805369282430853 0
0.6761669726092661 3.825769152665395 0
0.5783891948311978 3.873020011772065 0
0.6323339452176604 3.917002222856985 0
0.4806114170531294 3.920270870878734 0
0.5885009178260547 4.008235293048575 0
1.514074074073839 4.729381443299328 0
1.6 4.682989690722431 0
1.428148148147677 4.775773195876225 0
1.514074074073839 4.835051546391851 0
1.342222222221516 4.822164948453121 0
1.514074074073839 4.940721649484374 0
1.6 4.894329896907477 0
1.306666666667397 3.556701030927764 0
1.404444444444931 3.509450171821352 0
1.502222222222465 3.567869415808007 0
1.502222222222465 3.462199312714941 0
1.502222222222465 3.673539518901072 0
1.6 3.62628865979466 0
1.6 3.414948453608529 0
1.6 4.048969072166923 0
1.50740449558053 3.987242223583784 0
1.50740449558053 3.881572120490718 0
1.41480899116106 3.925515375000645 0
1.6 3.837628865980792 0
1.50740449558053 3.775902017397653 0
1.32221348674159 3.863788526417506 0
1.409626717802996 3.717482773410999 0
1.311848940025461 3.659063529424345 0
1.317031213383526 3.761426027920925 0
0.6844444444438581 4.644329896907522 0
0.6901408505556583 4.561987914647148 0
0.6140914678394136 4.601506814990892 0
0.7661902332719033 4.522469014303404 0
0.6958372566674587 4.479645932386775 0
0.8365432098763479 4.565292096220032 0
0.8422396159881482 4.48295011395966 0
0.701533662779259 4.397303950126403 0
0.625484280063014 4.436822850470147 0
0.1573827614645101 4.630510998726273 0
0.2334321441803414 4.693440551991339 0
0.238716140213189 4.60788625862186 0
0.3094815268961726 4.756370105256404 0
0.3200495189618677 4.585261518517447 0
0.3802469135793971 4.802405498282228 0
0.3855309096122447 4.71685120491275 0
0.4615802923283167 4.677332304569095 0
0.3908149056450922 4.631296911543271 0
0.5323456790115412 4.72336769759492 0
0.5376296750443887 4.637813404225441 0
0.3960989016779398 4.545742618173792 0
0.5433260811561891 4.555471421965068 0
0.5490224872679893 4.473129439704695 0
0.4725606944729646 4.509436028939244 0
0.5547188933797895 4.390787457444322 0
0.40179530778974 4.46340063591342 0
0.7755088027043596 4.354786088086255 0
0.705155826099915 4.311963006169625 0
0.8458617793088042 4.397609170002883 0
0.8494839426294603 4.312268226046106 0
0.9162147559132487 4.440432251919511 0
0.923459082554561 4.269750364005956 0
0.8531061059501164 4.226927282089328 0
1.005254942630977 4.311679665563674 0
1.001632779310321 4.397020609520451 0
1.087050802707393 4.35360896712139 0
0.4110909312099874 3.948184530825259 0
0.4650356815964501 3.992166741910179 0
0.4494599461397709 4.064062612941624 0
0.5189804319829129 4.036148952995099 0
0.379939460296629 4.091976272888148 0
0.4338842106830917 4.135958483973068 0
0.5729251823693755 4.08013116408002 0
0.4115528602510486 4.379441865606326 0
0.4880146530460734 4.343135276371777 0
0.4213104127123573 4.295483095299232 0
0.5644764458410982 4.306828687137228 0
0.431067965173666 4.211524324992139 0
0.5005884510168079 4.183610665045614 0
0.5672926913505241 4.231262846118159 0
0.5701089368599498 4.155697005099089 0
0.6339969316842402 4.278915027190704 0
0.6396294227030916 4.127783345152564 0
0.7079720716093407 4.236397165150556 0
0.7819472115344415 4.193879303110407 0
0.7107883171187666 4.160831324131485 0
0.332766789002844 4.04488710288723 0
0.3171910535461648 4.116782973918674 0
0.3483425244595232 3.972991231855785 0
0.2855941177090591 3.997797932886312 0
0.2228457109585948 4.022604633916838 0
0.1350091911261899 4.125053087524934 0
0.2261001223361773 4.120918030721804 0
0.1789274510423924 4.073828860720885 0
0.1066666666669276 3.592139175257721 0
0.0533333333334638 3.527706185566842 0
0.0533333333334638 3.630154639174764 0
0 3.463273195875963 0
0 3.668170103091807 0
2 4 0 70
904
905
906
907
908
909
910
911
912
913
914
915
916
917
918
919
920
921
922
923
924
925
926
927
928
929
930
931
932
933
934
935
936
937
938
939
940
941
942
943
944
945
946
947
948
949
950
951
952
953
954
955
956
957
958
959
960
961
962
963
964
965
966
967
968
969
970
971
972
973
0.3999999999990662 5 0
0.7999999999978958 5 0
1.199999999998937 5 0
0.9681834215156038 4.803865674360368 0
0.9403880070540982 4.664819435118329 0
1.112239858905479 4.783376136148931 0
0.9999999999984164 5 0
1.08409171075727 4.901932837180183 0
0.8840917107567499 4.901932837180183 0
0.7882892416216085 4.743857235805816 0
0.7041975308627546 4.841924398625633 0
1.228148148147146 4.881443298968748 0
0.3520987654311956 4.920962199312942 0
0.1999999999995331 5 0
1.399999999999469 5 0
0.5041975308633397 4.841924398625633 0
0.5999999999984811 5 0
1.098342151674726 4.713853016527912 0
1.184268077600417 4.773131367043213 0
1.012416225749036 4.654574666012611 0
1.026313932979789 4.72409778563363 0
0.9264902998233455 4.595296315497309 0
0.954285714284851 4.734342554739349 0
1.040211640210541 4.793620905254649 0
0.8999999999981561 5 0
0.9420458553775831 4.950966418590092 0
0.8420458553773229 4.950966418590092 0
1.042045855377843 4.950966418590092 0
0.98409171075701 4.901932837180183 0
1.099999999998677 5 0
1.142045855378103 4.950966418590092 0
1.026137566136437 4.852899255770275 0
0.9261375661361768 4.852899255770275 0
0.8504409171071006 4.634815215841053 0
0.7743915343908557 4.674334116184797 0
0.8643386243378534 4.704338335462072 0
0.6983421516746109 4.713853016528541 0
0.8782363315686061 4.773861455083091 0
0.6562962962951839 4.762886597938449 0
0.7462433862421816 4.792890817215724 0
0.7941446208097522 4.871928617902908 0
0.8361904761891792 4.822895036493 0
0.7520987654303253 4.920962199312816 0
1.214074074073042 4.940721649484374 0
1.156119929452208 4.891688068074465 0
1.170194003526313 4.832409717558839 0
1.098165784831374 4.842654486664557 0
1.24222222222125 4.822164948453121 0
0.3760493827151309 4.960481099656471 0
0.2760493827153644 4.960481099656471 0
0.2999999999992997 5 0
0.2520987654314291 4.920962199312942 0
0.1760493827155978 4.960481099656471 0
0.3281481481472603 4.881443298969413 0
0.09999999999976655 5 0
1.328148148147411 4.881443298968748 0
1.314074074073307 4.940721649484374 0
1.414074074073573 4.940721649484374 0
1.299999999999203 5 0
1.499999999999734 5 0
0.4802469135794044 4.802405498282104 0
0.5562962962954765 4.762886597938449 0
0.4041975308633323 4.841924398625759 0
0.4281481481472676 4.881443298969288 0
0.452098765431203 4.920962199312816 0
0.6520987654306178 4.920962199312816 0
0.6999999999981885 5 0
0.6041975308630472 4.841924398625633 0
0.5520987654309104 4.920962199312816 0
0.4999999999987736 5 0
$EndNodes
$Elements
4 1824 1 1824
2 1 2 384
1 16 66 68 
2 66 67 68 
3 66 22 67 
4 68 67 24 
5 22 69 67 
6 69 70 67 
7 69 23 70 
8 67 70 24 
9 22 71 69 
10 71 72 69 
11 71 15 72 
12 69 72 23 
13 24 70 74 
14 70 73 74 
15 70 23 73 
16 74 73 3 
17 15 71 76 
18 71 75 76 
19 71 22 75 
20 76 75 26 
21 22 77 75 
22 77 78 75 
23 77 25 78 
24 75 78 26 
25 22 66 77 
26 66 79 77 
27 66 16 79 
28 77 79 25 
29 26 78 81 
30 78 80 81 
31 78 25 80 
32 81 80 21 
33 4 82 84 
34 82 83 84 
35 82 27 83 
36 84 83 29 
37 27 85 83 
38 85 86 83 
39 85 28 86 
40 83 86 29 
41 27 87 85 
42 87 88 85 
43 87 5 88 
44 85 88 28 
45 29 86 90 
46 86 89 90 
47 86 28 89 
48 90 89 18 
49 18 89 92 
50 89 91 92 
51 89 28 91 
52 92 91 31 
53 28 93 91 
54 93 94 91 
55 93 30 94 
56 91 94 31 
57 28 88 93 
58 88 95 93 
59 88 5 95 
60 93 95 30 
61 31 94 97 
62 94 96 97 
63 94 30 96 
64 97 96 19 
65 12 98 100 
66 98 99 100 
67 98 32 99 
68 100 99 34 
69 32 101 99 
70 101 102 99 
71 101 33 102 
72 99 102 34 
73 32 103 101 
74 103 104 101 
75 103 13 104 
76 101 104 33 
77 34 102 106 
78 102 105 106 
79 102 33 105 
80 106 105 20 
81 13 107 104 
82 107 108 104 
83 107 35 108 
84 104 108 33 
85 35 109 108 
86 109 110 108 
87 109 36 110 
88 108 110 33 
89 35 111 109 
90 111 112 109 
91 111 6 112 
92 109 112 36 
93 33 110 105 
94 110 113 105 
95 110 36 113 
96 105 113 20 
97 6 114 112 
98 114 115 112 
99 114 37 115 
100 112 115 36 
101 37 116 115 
102 116 117 115 
103 116 38 117 
104 115 117 36 
105 37 118 116 
106 118 119 116 
107 118 7 119 
108 116 119 38 
109 36 117 113 
110 117 120 113 
111 117 38 120 
112 113 120 20 
113 6 111 122 
114 111 121 122 
115 111 35 121 
116 122 121 40 
117 35 123 121 
118 123 124 121 
119 123 39 124 
120 121 124 40 
121 35 107 123 
122 107 125 123 
123 107 13 125 
124 123 125 39 
125 40 124 127 
126 124 126 127 
127 124 39 126 
128 127 126 19 
129 8 128 130 
130 128 129 130 
131 128 41 129 
132 130 129 43 
133 41 131 129 
134 131 132 129 
135 131 42 132 
136 129 132 43 
137 41 133 131 
138 133 134 131 
139 133 11 134 
140 131 134 42 
141 43 132 136 
142 132 135 136 
143 132 42 135 
144 136 135 17 
145 18 137 139 
146 137 138 139 
147 137 44 138 
148 139 138 45 
149 44 140 138 
150 140 141 138 
151 140 26 141 
152 138 141 45 
153 44 142 140 
154 142 76 140 
155 142 15 76 
156 140 76 26 
157 45 141 143 
158 141 81 143 
159 141 26 81 
160 143 81 21 
161 12 144 146 
162 144 145 146 
163 144 46 145 
164 146 145 48 
165 46 147 145 
166 147 148 145 
167 147 47 148 
168 145 148 48 
169 46 149 147 
170 149 150 147 
171 149 7 150 
172 147 150 47 
173 48 148 152 
174 148 151 152 
175 148 47 151 
176 152 151 17 
177 14 153 155 
178 153 154 155 
179 153 49 154 
180 155 154 50 
181 49 156 154 
182 156 157 154 
183 156 44 157 
184 154 157 50 
185 49 158 156 
186 158 142 156 
187 158 15 142 
188 156 142 44 
189 50 157 159 
190 157 137 159 
191 157 44 137 
192 159 137 18 
193 5 160 95 
194 160 161 95 
195 160 51 161 
196 95 161 30 
197 51 162 161 
198 162 163 161 
199 162 40 163 
200 161 163 30 
201 51 164 162 
202 164 122 162 
203 164 6 122 
204 162 122 40 
205 30 163 96 
206 163 127 96 
207 163 40 127 
208 96 127 19 
209 1 165 167 
210 165 166 167 
211 165 52 166 
212 167 166 54 
213 52 168 166 
214 168 169 166 
215 168 53 169 
216 166 169 54 
217 52 170 168 
218 170 171 168 
219 170 4 171 
220 168 171 53 
221 54 169 173 
222 169 172 173 
223 169 53 172 
224 173 172 21 
225 14 155 175 
226 155 174 175 
227 155 50 174 
228 175 174 55 
229 50 176 174 
230 176 177 174 
231 176 31 177 
232 174 177 55 
233 50 159 176 
234 159 92 176 
235 159 18 92 
236 176 92 31 
237 55 177 178 
238 177 97 178 
239 177 31 97 
240 178 97 19 
241 16 179 79 
242 179 180 79 
243 179 56 180 
244 79 180 25 
245 56 181 180 
246 181 182 180 
247 181 54 182 
248 180 182 25 
249 56 183 181 
250 183 167 181 
251 183 1 167 
252 181 167 54 
253 25 182 80 
254 182 173 80 
255 182 54 173 
256 80 173 21 
257 13 184 125 
258 184 185 125 
259 184 57 185 
260 125 185 39 
261 57 186 185 
262 186 187 185 
263 186 55 187 
264 185 187 39 
265 57 188 186 
266 188 175 186 
267 188 14 175 
268 186 175 55 
269 39 187 126 
270 187 178 126 
271 187 55 178 
272 126 178 19 
273 7 149 119 
274 149 189 119 
275 149 46 189 
276 119 189 38 
277 46 190 189 
278 190 191 189 
279 190 34 191 
280 189 191 38 
281 46 144 190 
282 144 100 190 
283 144 12 100 
284 190 100 34 
285 38 191 120 
286 191 106 120 
287 191 34 106 
288 120 106 20 
289 4 84 171 
290 84 192 171 
291 84 29 192 
292 171 192 53 
293 29 193 192 
294 193 194 192 
295 193 45 194 
296 192 194 53 
297 29 90 193 
298 90 139 193 
299 90 18 139 
300 193 139 45 
301 53 194 172 
302 194 143 172 
303 194 45 143 
304 172 143 21 
305 7 195 150 
306 195 196 150 
307 195 58 196 
308 150 196 47 
309 58 197 196 
310 197 198 196 
311 197 43 198 
312 196 198 47 
313 58 199 197 
314 199 130 197 
315 199 8 130 
316 197 130 43 
317 47 198 151 
318 198 136 151 
319 198 43 136 
320 151 136 17 
321 11 200 134 
322 200 201 134 
323 200 59 201 
324 134 201 42 
325 59 202 201 
326 202 203 201 
327 202 48 203 
328 201 203 42 
329 59 204 202 
330 204 146 202 
331 204 12 146 
332 202 146 48 
333 42 203 135 
334 203 152 135 
335 203 48 152 
336 135 152 17 
337 10 205 207 
338 205 206 207 
339 205 60 206 
340 207 206 62 
341 60 208 206 
342 208 209 206 
343 208 61 209 
344 206 209 62 
345 60 210 208 
346 210 211 208 
347 210 9 211 
348 208 211 61 
349 62 209 213 
350 209 212 213 
351 209 61 212 
352 213 212 2 
353 9 210 215 
354 210 214 215 
355 210 60 214 
356 215 214 64 
357 60 216 214 
358 216 217 214 
359 216 63 217 
360 214 217 64 
361 60 205 216 
362 205 218 216 
363 205 10 218 
364 216 218 63 
365 64 217 220 
366 217 219 220 
367 217 63 219 
368 220 219 8 
369 10 221 218 
370 221 222 218 
371 221 65 222 
372 218 222 63 
373 65 223 222 
374 223 224 222 
375 223 41 224 
376 222 224 63 
377 65 225 223 
378 225 133 223 
379 225 11 133 
380 223 133 41 
381 63 224 219 
382 224 128 219 
383 224 41 128 
384 219 128 8 
2 2 2 784
385 240 331 333 
386 331 332 333 
387 331 254 332 
388 333 332 256 
389 254 334 332 
390 334 335 332 
391 334 255 335 
392 332 335 256 
393 254 336 334 
394 336 337 334 
395 336 233 337 
396 334 337 255 
397 256 335 339 
398 335 338 339 
399 335 255 338 
400 339 338 244 
401 229 340 342 
402 340 341 342 
403 340 257 341 
404 342 341 259 
405 257 343 341 
406 343 344 341 
407 343 258 344 
408 341 344 259 
409 257 345 343 
410 345 346 343 
411 345 245 346 
412 343 346 258 
413 259 344 348 
414 344 347 348 
415 344 258 347 
416 348 347 248 
417 229 342 350 
418 342 349 350 
419 342 259 349 
420 350 349 261 
421 259 351 349 
422 351 352 349 
423 351 260 352 
424 349 352 261 
425 259 348 351 
426 348 353 351 
427 348 248 353 
428 351 353 260 
429 261 352 355 
430 352 354 355 
431 352 260 354 
432 355 354 252 
433 233 356 337 
434 356 357 337 
435 356 262 357 
436 337 357 255 
437 262 358 357 
438 358 359 357 
439 358 263 359 
440 357 359 255 
441 262 360 358 
442 360 361 358 
443 360 234 361 
444 358 361 263 
445 255 359 338 
446 359 362 338 
447 359 263 362 
448 338 362 244 
449 243 363 365 
450 363 364 365 
451 363 264 364 
452 365 364 266 
453 264 366 364 
454 366 367 364 
455 366 265 367 
456 364 367 266 
457 264 368 366 
458 368 369 366 
459 368 236 369 
460 366 369 265 
461 266 367 371 
462 367 370 371 
463 367 265 370 
464 371 370 251 
465 241 372 374 
466 372 373 374 
467 372 267 373 
468 374 373 268 
469 267 375 373 
470 375 376 373 
471 375 266 376 
472 373 376 268 
473 267 377 375 
474 377 365 375 
475 377 243 365 
476 375 365 266 
477 268 376 378 
478 376 371 378 
479 376 266 371 
480 378 371 251 
481 237 379 381 
482 379 380 381 
483 379 269 380 
484 381 380 271 
485 269 382 380 
486 382 383 380 
487 382 270 383 
488 380 383 271 
489 269 384 382 
490 384 385 382 
491 384 2 385 
492 382 385 270 
493 271 383 387 
494 383 386 387 
495 383 270 386 
496 387 386 241 
497 240 333 389 
498 333 388 389 
499 333 256 388 
500 389 388 273 
501 256 390 388 
502 390 391 388 
503 390 272 391 
504 388 391 273 
505 256 339 390 
506 339 392 390 
507 339 244 392 
508 390 392 272 
509 273 391 394 
510 391 393 394 
511 391 272 393 
512 394 393 246 
513 235 395 397 
514 395 396 397 
515 395 274 396 
516 397 396 275 
517 274 398 396 
518 398 399 396 
519 398 264 399 
520 396 399 275 
521 274 400 398 
522 400 368 398 
523 400 236 368 
524 398 368 264 
525 275 399 401 
526 399 363 401 
527 399 264 363 
528 401 363 243 
529 2 213 385 
530 213 402 385 
531 213 62 402 
532 385 402 270 
533 62 403 402 
534 403 404 402 
535 403 276 404 
536 402 404 270 
537 62 207 403 
538 207 405 403 
539 207 10 405 
540 403 405 276 
541 270 404 386 
542 404 406 386 
543 404 276 406 
544 386 406 241 
545 229 407 340 
546 407 408 340 
547 407 277 408 
548 340 408 257 
549 277 409 408 
550 409 410 408 
551 409 278 410 
552 408 410 257 
553 277 411 409 
554 411 412 409 
555 411 230 412 
556 409 412 278 
557 257 410 345 
558 410 413 345 
559 410 278 413 
560 345 413 245 
561 226 414 416 
562 414 415 416 
563 414 279 415 
564 416 415 280 
565 279 417 415 
566 417 418 415 
567 417 261 418 
568 415 418 280 
569 279 419 417 
570 419 350 417 
571 419 229 350 
572 417 350 261 
573 280 418 420 
574 418 355 420 
575 418 261 355 
576 420 355 252 
577 241 421 372 
578 421 422 372 
579 421 281 422 
580 372 422 267 
581 281 423 422 
582 423 424 422 
583 423 282 424 
584 422 424 267 
585 281 425 423 
586 425 426 423 
587 425 239 426 
588 423 426 282 
589 267 424 377 
590 424 427 377 
591 424 282 427 
592 377 427 243 
593 244 428 392 
594 428 429 392 
595 428 283 429 
596 392 429 272 
597 283 430 429 
598 430 431 429 
599 430 284 431 
600 429 431 272 
601 283 432 430 
602 432 433 430 
603 432 239 433 
604 430 433 284 
605 272 431 393 
606 431 434 393 
607 431 284 434 
608 393 434 246 
609 237 381 436 
610 381 435 436 
611 381 271 435 
612 436 435 285 
613 271 437 435 
614 437 438 435 
615 437 268 438 
616 435 438 285 
617 271 387 437 
618 387 374 437 
619 387 241 374 
620 437 374 268 
621 285 438 439 
622 438 378 439 
623 438 268 378 
624 439 378 251 
625 246 440 442 
626 440 441 442 
627 440 286 441 
628 442 441 288 
629 286 443 441 
630 443 444 441 
631 443 287 444 
632 441 444 288 
633 286 445 443 
634 445 446 443 
635 445 12 446 
636 443 446 287 
637 288 444 448 
638 444 447 448 
639 444 287 447 
640 448 447 247 
641 10 449 405 
642 449 450 405 
643 449 289 450 
644 405 450 276 
645 289 451 450 
646 451 452 450 
647 451 281 452 
648 450 452 276 
649 289 453 451 
650 453 425 451 
651 453 239 425 
652 451 425 281 
653 276 452 406 
654 452 421 406 
655 452 281 421 
656 406 421 241 
657 240 389 455 
658 389 454 455 
659 389 273 454 
660 455 454 290 
661 273 456 454 
662 456 457 454 
663 456 288 457 
664 454 457 290 
665 273 394 456 
666 394 442 456 
667 394 246 442 
668 456 442 288 
669 290 457 458 
670 457 448 458 
671 457 288 448 
672 458 448 247 
673 15 72 460 
674 72 459 460 
675 72 23 459 
676 460 459 292 
677 23 461 459 
678 461 462 459 
679 461 291 462 
680 459 462 292 
681 23 73 461 
682 73 463 461 
683 73 3 463 
684 461 463 291 
685 292 462 465 
686 462 464 465 
687 462 291 464 
688 465 464 248 
689 245 466 346 
690 466 467 346 
691 466 293 467 
692 346 467 258 
693 293 468 467 
694 468 469 467 
695 468 292 469 
696 467 469 258 
697 293 470 468 
698 470 460 468 
699 470 15 460 
700 468 460 292 
701 258 469 347 
702 469 465 347 
703 469 292 465 
704 347 465 248 
705 244 362 472 
706 362 471 472 
707 362 263 471 
708 472 471 295 
709 263 473 471 
710 473 474 471 
711 473 294 474 
712 471 474 295 
713 263 361 473 
714 361 475 473 
715 361 234 475 
716 473 475 294 
717 295 474 477 
718 474 476 477 
719 474 294 476 
720 477 476 249 
721 13 184 479 
722 184 478 479 
723 184 57 478 
724 479 478 297 
725 57 480 478 
726 480 481 478 
727 480 296 481 
728 478 481 297 
729 57 188 480 
730 188 482 480 
731 188 14 482 
732 480 482 296 
733 297 481 484 
734 481 483 484 
735 481 296 483 
736 484 483 242 
737 242 483 486 
738 483 485 486 
739 483 296 485 
740 486 485 299 
741 296 487 485 
742 487 488 485 
743 487 298 488 
744 485 488 299 
745 296 482 487 
746 482 489 487 
747 482 14 489 
748 487 489 298 
749 299 488 491 
750 488 490 491 
751 488 298 490 
752 491 490 245 
753 10 221 449 
754 221 492 449 
755 221 65 492 
756 449 492 289 
757 65 493 492 
758 493 494 492 
759 493 300 494 
760 492 494 289 
761 65 225 493 
762 225 495 493 
763 225 11 495 
764 493 495 300 
765 289 494 453 
766 494 496 453 
767 494 300 496 
768 453 496 239 
769 11 200 498 
770 200 497 498 
771 200 59 497 
772 498 497 301 
773 59 499 497 
774 499 500 497 
775 499 286 500 
776 497 500 301 
777 59 204 499 
778 204 445 499 
779 204 12 445 
780 499 445 286 
781 301 500 501 
782 500 440 501 
783 500 286 440 
784 501 440 246 
785 232 502 504 
786 502 503 504 
787 502 302 503 
788 504 503 303 
789 302 505 503 
790 505 506 503 
791 505 254 506 
792 503 506 303 
793 302 507 505 
794 507 336 505 
795 507 233 336 
796 505 336 254 
797 303 506 508 
798 506 331 508 
799 506 254 331 
800 508 331 240 
801 12 98 446 
802 98 509 446 
803 98 32 509 
804 446 509 287 
805 32 510 509 
806 510 511 509 
807 510 304 511 
808 509 511 287 
809 32 103 510 
810 103 512 510 
811 103 13 512 
812 510 512 304 
813 287 511 447 
814 511 513 447 
815 511 304 513 
816 447 513 247 
817 239 496 433 
818 496 514 433 
819 496 300 514 
820 433 514 284 
821 300 515 514 
822 515 516 514 
823 515 301 516 
824 514 516 284 
825 300 495 515 
826 495 498 515 
827 495 11 498 
828 515 498 301 
829 284 516 434 
830 516 501 434 
831 516 301 501 
832 434 501 246 
833 14 153 489 
834 153 517 489 
835 153 49 517 
836 489 517 298 
837 49 518 517 
838 518 519 517 
839 518 293 519 
840 517 519 298 
841 49 158 518 
842 158 470 518 
843 158 15 470 
844 518 470 293 
845 298 519 490 
846 519 466 490 
847 519 293 466 
848 490 466 245 
849 13 479 512 
850 479 520 512 
851 479 297 520 
852 512 520 304 
853 297 521 520 
854 521 522 520 
855 521 305 522 
856 520 522 304 
857 297 484 521 
858 484 523 521 
859 484 242 523 
860 521 523 305 
861 304 522 513 
862 522 524 513 
863 522 305 524 
864 513 524 247 
865 243 427 526 
866 427 525 526 
867 427 282 525 
868 526 525 306 
869 282 527 525 
870 527 528 525 
871 527 283 528 
872 525 528 306 
873 282 426 527 
874 426 432 527 
875 426 239 432 
876 527 432 283 
877 306 528 529 
878 528 428 529 
879 528 283 428 
880 529 428 244 
881 235 397 531 
882 397 530 531 
883 397 275 530 
884 531 530 308 
885 275 532 530 
886 532 533 530 
887 532 307 533 
888 530 533 308 
889 275 401 532 
890 401 534 532 
891 401 243 534 
892 532 534 307 
893 308 533 536 
894 533 535 536 
895 533 307 535 
896 536 535 249 
897 236 537 369 
898 537 538 369 
899 537 309 538 
900 369 538 265 
901 309 539 538 
902 539 540 538 
903 539 310 540 
904 538 540 265 
905 309 541 539 
906 541 542 539 
907 541 228 542 
908 539 542 310 
909 265 540 370 
910 540 543 370 
911 540 310 543 
912 370 543 251 
913 234 544 475 
914 544 545 475 
915 544 311 545 
916 475 545 294 
917 311 546 545 
918 546 547 545 
919 546 312 547 
920 545 547 294 
921 311 548 546 
922 548 549 546 
923 548 227 549 
924 546 549 312 
925 294 547 476 
926 547 550 476 
927 547 312 550 
928 476 550 249 
929 232 504 552 
930 504 551 552 
931 504 303 551 
932 552 551 314 
933 303 553 551 
934 553 554 551 
935 553 313 554 
936 551 554 314 
937 303 508 553 
938 508 555 553 
939 508 240 555 
940 553 555 313 
941 314 554 557 
942 554 556 557 
943 554 313 556 
944 557 556 250 
945 240 455 555 
946 455 558 555 
947 455 290 558 
948 555 558 313 
949 290 559 558 
950 559 560 558 
951 559 315 560 
952 558 560 313 
953 290 458 559 
954 458 561 559 
955 458 247 561 
956 559 561 315 
957 313 560 556 
958 560 562 556 
959 560 315 562 
960 556 562 250 
961 243 526 534 
962 526 563 534 
963 526 306 563 
964 534 563 307 
965 306 564 563 
966 564 565 563 
967 564 295 565 
968 563 565 307 
969 306 529 564 
970 529 472 564 
971 529 244 472 
972 564 472 295 
973 307 565 535 
974 565 477 535 
975 565 295 477 
976 535 477 249 
977 227 566 549 
978 566 567 549 
979 566 316 567 
980 549 567 312 
981 316 568 567 
982 568 569 567 
983 568 308 569 
984 567 569 312 
985 316 570 568 
986 570 531 568 
987 570 235 531 
988 568 531 308 
989 312 569 550 
990 569 536 550 
991 569 308 536 
992 550 536 249 
993 3 571 463 
994 571 572 463 
995 571 317 572 
996 463 572 291 
997 317 573 572 
998 573 574 572 
999 573 318 574 
1000 572 574 291 
1001 317 575 573 
1002 575 576 573 
1003 575 238 576 
1004 573 576 318 
1005 291 574 464 
1006 574 577 464 
1007 574 318 577 
1008 464 577 248 
1009 231 578 580 
1010 578 579 580 
1011 578 319 579 
1012 580 579 320 
1013 319 581 579 
1014 581 582 579 
1015 581 314 582 
1016 579 582 320 
1017 319 583 581 
1018 583 552 581 
1019 583 232 552 
1020 581 552 314 
1021 320 582 584 
1022 582 557 584 
1023 582 314 557 
1024 584 557 250 
1025 247 524 561 
1026 524 585 561 
1027 524 305 585 
1028 561 585 315 
1029 305 586 585 
1030 586 587 585 
1031 586 321 587 
1032 585 587 315 
1033 305 523 586 
1034 523 588 586 
1035 523 242 588 
1036 586 588 321 
1037 315 587 562 
1038 587 589 562 
1039 587 321 589 
1040 562 589 250 
1041 228 590 542 
1042 590 591 542 
1043 590 322 591 
1044 542 591 310 
1045 322 592 591 
1046 592 593 591 
1047 592 285 593 
1048 591 593 310 
1049 322 594 592 
1050 594 436 592 
1051 594 237 436 
1052 592 436 285 
1053 310 593 543 
1054 593 439 543 
1055 593 285 439 
1056 543 439 251 
1057 242 486 596 
1058 486 595 596 
1059 486 299 595 
1060 596 595 324 
1061 299 597 595 
1062 597 598 595 
1063 597 323 598 
1064 595 598 324 
1065 299 491 597 
1066 491 599 597 
1067 491 245 599 
1068 597 599 323 
1069 324 598 601 
1070 598 600 601 
1071 598 323 600 
1072 601 600 253 
1073 245 413 599 
1074 413 602 599 
1075 413 278 602 
1076 599 602 323 
1077 278 603 602 
1078 603 604 602 
1079 603 325 604 
1080 602 604 323 
1081 278 412 603 
1082 412 605 603 
1083 412 230 605 
1084 603 605 325 
1085 323 604 600 
1086 604 606 600 
1087 604 325 606 
1088 600 606 253 
1089 231 580 608 
1090 580 607 608 
1091 580 320 607 
1092 608 607 327 
1093 320 609 607 
1094 609 610 607 
1095 609 326 610 
1096 607 610 327 
1097 320 584 609 
1098 584 611 609 
1099 584 250 611 
1100 609 611 326 
1101 327 610 613 
1102 610 612 613 
1103 610 326 612 
1104 613 612 253 
1105 250 589 611 
1106 589 614 611 
1107 589 321 614 
1108 611 614 326 
1109 321 615 614 
1110 615 616 614 
1111 615 324 616 
1112 614 616 326 
1113 321 588 615 
1114 588 596 615 
1115 588 242 596 
1116 615 596 324 
1117 326 616 612 
1118 616 601 612 
1119 616 324 601 
1120 612 601 253 
1121 230 617 605 
1122 617 618 605 
1123 617 328 618 
1124 605 618 325 
1125 328 619 618 
1126 619 620 618 
1127 619 327 620 
1128 618 620 325 
1129 328 621 619 
1130 621 608 619 
1131 621 231 608 
1132 619 608 327 
1133 325 620 606 
1134 620 613 606 
1135 620 327 613 
1136 606 613 253 
1137 238 622 624 
1138 622 623 624 
1139 622 329 623 
1140 624 623 330 
1141 329 625 623 
1142 625 626 623 
1143 625 280 626 
1144 623 626 330 
1145 329 627 625 
1146 627 416 625 
1147 627 226 416 
1148 625 416 280 
1149 330 626 628 
1150 626 420 628 
1151 626 280 420 
1152 628 420 252 
1153 248 577 353 
1154 577 629 353 
1155 577 318 629 
1156 353 629 260 
1157 318 630 629 
1158 630 631 629 
1159 630 330 631 
1160 629 631 260 
1161 318 576 630 
1162 576 624 630 
1163 576 238 624 
1164 630 624 330 
1165 260 631 354 
1166 631 628 354 
1167 631 330 628 
1168 354 628 252 
2 3 2 512
1169 236 704 706 
1170 704 705 706 
1171 704 652 705 
1172 706 705 654 
1173 652 707 705 
1174 707 708 705 
1175 707 653 708 
1176 705 708 654 
1177 652 709 707 
1178 709 710 707 
1179 709 645 710 
1180 707 710 653 
1181 654 708 712 
1182 708 711 712 
1183 708 653 711 
1184 712 711 647 
1185 645 709 714 
1186 709 713 714 
1187 709 652 713 
1188 714 713 656 
1189 652 715 713 
1190 715 716 713 
1191 715 655 716 
1192 713 716 656 
1193 652 704 715 
1194 704 717 715 
1195 704 236 717 
1196 715 717 655 
1197 656 716 719 
1198 716 718 719 
1199 716 655 718 
1200 719 718 650 
1201 646 720 722 
1202 720 721 722 
1203 720 657 721 
1204 722 721 659 
1205 657 723 721 
1206 723 724 721 
1207 723 658 724 
1208 721 724 659 
1209 657 725 723 
1210 725 726 723 
1211 725 642 726 
1212 723 726 658 
1213 659 724 728 
1214 724 727 728 
1215 724 658 727 
1216 728 727 647 
1217 237 729 731 
1218 729 730 731 
1219 729 660 730 
1220 731 730 662 
1221 660 732 730 
1222 732 733 730 
1223 732 661 733 
1224 730 733 662 
1225 660 734 732 
1226 734 735 732 
1227 734 635 735 
1228 732 735 661 
1229 662 733 737 
1230 733 736 737 
1231 733 661 736 
1232 737 736 651 
1233 638 738 740 
1234 738 739 740 
1235 738 663 739 
1236 740 739 665 
1237 663 741 739 
1238 741 742 739 
1239 741 664 742 
1240 739 742 665 
1241 663 743 741 
1242 743 744 741 
1243 743 637 744 
1244 741 744 664 
1245 665 742 746 
1246 742 745 746 
1247 742 664 745 
1248 746 745 632 
1249 645 747 710 
1250 747 748 710 
1251 747 666 748 
1252 710 748 653 
1253 666 749 748 
1254 749 750 748 
1255 749 659 750 
1256 748 750 653 
1257 666 751 749 
1258 751 722 749 
1259 751 646 722 
1260 749 722 659 
1261 653 750 711 
1262 750 728 711 
1263 750 659 728 
1264 711 728 647 
1265 641 752 754 
1266 752 753 754 
1267 752 667 753 
1268 754 753 668 
1269 667 755 753 
1270 755 756 753 
1271 755 657 756 
1272 753 756 668 
1273 667 757 755 
1274 757 725 755 
1275 757 642 725 
1276 755 725 657 
1277 668 756 758 
1278 756 720 758 
1279 756 657 720 
1280 758 720 646 
1281 635 759 735 
1282 759 760 735 
1283 759 669 760 
1284 735 760 661 
1285 669 761 760 
1286 761 762 760 
1287 761 670 762 
1288 760 762 661 
1289 669 763 761 
1290 763 764 761 
1291 763 636 764 
1292 761 764 670 
1293 661 762 736 
1294 762 765 736 
1295 762 670 765 
1296 736 765 651 
1297 633 766 768 
1298 766 767 768 
1299 766 671 767 
1300 768 767 673 
1301 671 769 767 
1302 769 770 767 
1303 769 672 770 
1304 767 770 673 
1305 671 771 769 
1306 771 772 769 
1307 771 640 772 
1308 769 772 672 
1309 673 770 774 
1310 770 773 774 
1311 770 672 773 
1312 774 773 646 
1313 636 775 777 
1314 775 776 777 
1315 775 674 776 
1316 777 776 676 
1317 674 778 776 
1318 778 779 776 
1319 778 675 779 
1320 776 779 676 
1321 674 780 778 
1322 780 781 778 
1323 780 637 781 
1324 778 781 675 
1325 676 779 783 
1326 779 782 783 
1327 779 675 782 
1328 783 782 648 
1329 636 777 785 
1330 777 784 785 
1331 777 676 784 
1332 785 784 678 
1333 676 786 784 
1334 786 787 784 
1335 786 677 787 
1336 784 787 678 
1337 676 783 786 
1338 783 788 786 
1339 783 648 788 
1340 786 788 677 
1341 678 787 790 
1342 787 789 790 
1343 787 677 789 
1344 790 789 649 
1345 640 791 772 
1346 791 792 772 
1347 791 679 792 
1348 772 792 672 
1349 679 793 792 
1350 793 794 792 
1351 793 668 794 
1352 792 794 672 
1353 679 795 793 
1354 795 754 793 
1355 795 641 754 
1356 793 754 668 
1357 672 794 773 
1358 794 758 773 
1359 794 668 758 
1360 773 758 646 
1361 228 590 797 
1362 590 796 797 
1363 590 322 796 
1364 797 796 680 
1365 322 798 796 
1366 798 799 796 
1367 798 662 799 
1368 796 799 680 
1369 322 594 798 
1370 594 731 798 
1371 594 237 731 
1372 798 731 662 
1373 680 799 800 
1374 799 737 800 
1375 799 662 737 
1376 800 737 651 
1377 235 395 802 
1378 395 801 802 
1379 395 274 801 
1380 802 801 681 
1381 274 803 801 
1382 803 804 801 
1383 803 654 804 
1384 801 804 681 
1385 274 400 803 
1386 400 706 803 
1387 400 236 706 
1388 803 706 654 
1389 681 804 805 
1390 804 712 805 
1391 804 654 712 
1392 805 712 647 
1393 236 537 717 
1394 537 806 717 
1395 537 309 806 
1396 717 806 655 
1397 309 807 806 
1398 807 808 806 
1399 807 682 808 
1400 806 808 655 
1401 309 541 807 
1402 541 809 807 
1403 541 228 809 
1404 807 809 682 
1405 655 808 718 
1406 808 810 718 
1407 808 682 810 
1408 718 810 650 
1409 641 795 812 
1410 795 811 812 
1411 795 679 811 
1412 812 811 684 
1413 679 813 811 
1414 813 814 811 
1415 813 683 814 
1416 811 814 684 
1417 679 791 813 
1418 791 815 813 
1419 791 640 815 
1420 813 815 683 
1421 684 814 817 
1422 814 816 817 
1423 814 683 816 
1424 817 816 634 
1425 235 818 570 
1426 818 819 570 
1427 818 685 819 
1428 570 819 316 
1429 685 820 819 
1430 820 821 819 
1431 820 686 821 
1432 819 821 316 
1433 685 822 820 
1434 822 823 820 
1435 822 643 823 
1436 820 823 686 
1437 316 821 566 
1438 821 824 566 
1439 821 686 824 
1440 566 824 227 
1441 642 825 726 
1442 825 826 726 
1443 825 687 826 
1444 726 826 658 
1445 687 827 826 
1446 827 828 826 
1447 827 688 828 
1448 826 828 658 
1449 687 829 827 
1450 829 830 827 
1451 829 643 830 
1452 827 830 688 
1453 658 828 727 
1454 828 831 727 
1455 828 688 831 
1456 727 831 647 
1457 643 822 830 
1458 822 832 830 
1459 822 685 832 
1460 830 832 688 
1461 685 833 832 
1462 833 834 832 
1463 833 681 834 
1464 832 834 688 
1465 685 818 833 
1466 818 802 833 
1467 818 235 802 
1468 833 802 681 
1469 688 834 831 
1470 834 805 831 
1471 834 681 805 
1472 831 805 647 
1473 639 835 837 
1474 835 836 837 
1475 835 689 836 
1476 837 836 691 
1477 689 838 836 
1478 838 839 836 
1479 838 690 839 
1480 836 839 691 
1481 689 840 838 
1482 840 841 838 
1483 840 633 841 
1484 838 841 690 
1485 691 839 843 
1486 839 842 843 
1487 839 690 842 
1488 843 842 644 
1489 637 743 781 
1490 743 844 781 
1491 743 663 844 
1492 781 844 675 
1493 663 845 844 
1494 845 846 844 
1495 845 692 846 
1496 844 846 675 
1497 663 738 845 
1498 738 847 845 
1499 738 638 847 
1500 845 847 692 
1501 675 846 782 
1502 846 848 782 
1503 846 692 848 
1504 782 848 648 
1505 638 849 847 
1506 849 850 847 
1507 849 693 850 
1508 847 850 692 
1509 693 851 850 
1510 851 852 850 
1511 851 694 852 
1512 850 852 692 
1513 693 853 851 
1514 853 854 851 
1515 853 639 854 
1516 851 854 694 
1517 692 852 848 
1518 852 855 848 
1519 852 694 855 
1520 848 855 648 
1521 639 837 854 
1522 837 856 854 
1523 837 691 856 
1524 854 856 694 
1525 691 857 856 
1526 857 858 856 
1527 857 695 858 
1528 856 858 694 
1529 691 843 857 
1530 843 859 857 
1531 843 644 859 
1532 857 859 695 
1533 694 858 855 
1534 858 860 855 
1535 858 695 860 
1536 855 860 648 
1537 644 842 862 
1538 842 861 862 
1539 842 690 861 
1540 862 861 697 
1541 690 863 861 
1542 863 864 861 
1543 863 696 864 
1544 861 864 697 
1545 690 841 863 
1546 841 865 863 
1547 841 633 865 
1548 863 865 696 
1549 697 864 867 
1550 864 866 867 
1551 864 696 866 
1552 867 866 645 
1553 645 866 747 
1554 866 868 747 
1555 866 696 868 
1556 747 868 666 
1557 696 869 868 
1558 869 870 868 
1559 869 673 870 
1560 868 870 666 
1561 696 865 869 
1562 865 768 869 
1563 865 633 768 
1564 869 768 673 
1565 666 870 751 
1566 870 774 751 
1567 870 673 774 
1568 751 774 646 
1569 228 871 809 
1570 871 872 809 
1571 871 698 872 
1572 809 872 682 
1573 698 873 872 
1574 873 874 872 
1575 873 699 874 
1576 872 874 682 
1577 698 875 873 
1578 875 876 873 
1579 875 649 876 
1580 873 876 699 
1581 682 874 810 
1582 874 877 810 
1583 874 699 877 
1584 810 877 650 
1585 648 860 788 
1586 860 878 788 
1587 860 695 878 
1588 788 878 677 
1589 695 879 878 
1590 879 880 878 
1591 879 700 880 
1592 878 880 677 
1593 695 859 879 
1594 859 881 879 
1595 859 644 881 
1596 879 881 700 
1597 677 880 789 
1598 880 882 789 
1599 880 700 882 
1600 789 882 649 
1601 649 882 876 
1602 882 883 876 
1603 882 700 883 
1604 876 883 699 
1605 700 884 883 
1606 884 885 883 
1607 884 701 885 
1608 883 885 699 
1609 700 881 884 
1610 881 886 884 
1611 881 644 886 
1612 884 886 701 
1613 699 885 877 
1614 885 887 877 
1615 885 701 887 
1616 877 887 650 
1617 644 862 886 
1618 862 888 886 
1619 862 697 888 
1620 886 888 701 
1621 697 889 888 
1622 889 890 888 
1623 889 656 890 
1624 888 890 701 
1625 697 867 889 
1626 867 714 889 
1627 867 645 714 
1628 889 714 656 
1629 701 890 887 
1630 890 719 887 
1631 890 656 719 
1632 887 719 650 
1633 649 875 892 
1634 875 891 892 
1635 875 698 891 
1636 892 891 702 
1637 698 893 891 
1638 893 894 891 
1639 893 680 894 
1640 891 894 702 
1641 698 871 893 
1642 871 797 893 
1643 871 228 797 
1644 893 797 680 
1645 702 894 895 
1646 894 800 895 
1647 894 680 800 
1648 895 800 651 
1649 636 785 764 
1650 785 896 764 
1651 785 678 896 
1652 764 896 670 
1653 678 897 896 
1654 897 898 896 
1655 897 702 898 
1656 896 898 670 
1657 678 790 897 
1658 790 892 897 
1659 790 649 892 
1660 897 892 702 
1661 670 898 765 
1662 898 895 765 
1663 898 702 895 
1664 765 895 651 
1665 237 379 729 
1666 379 899 729 
1667 379 269 899 
1668 729 899 660 
1669 269 900 899 
1670 900 901 899 
1671 900 703 901 
1672 899 901 660 
1673 269 384 900 
1674 384 902 900 
1675 384 2 902 
1676 900 902 703 
1677 660 901 734 
1678 901 903 734 
1679 901 703 903 
1680 734 903 635 
2 4 2 144
1681 640 771 922 
1682 771 921 922 
1683 771 671 921 
1684 922 921 909 
1685 671 923 921 
1686 923 924 921 
1687 923 908 924 
1688 921 924 909 
1689 671 766 923 
1690 766 925 923 
1691 766 633 925 
1692 923 925 908 
1693 909 924 927 
1694 924 926 927 
1695 924 908 926 
1696 927 926 907 
1697 905 928 930 
1698 928 929 930 
1699 928 910 929 
1700 930 929 912 
1701 910 931 929 
1702 931 932 929 
1703 931 911 932 
1704 929 932 912 
1705 910 933 931 
1706 933 934 931 
1707 933 906 934 
1708 931 934 911 
1709 912 932 936 
1710 932 935 936 
1711 932 911 935 
1712 936 935 907 
1713 633 840 925 
1714 840 937 925 
1715 840 689 937 
1716 925 937 908 
1717 689 938 937 
1718 938 939 937 
1719 938 913 939 
1720 937 939 908 
1721 689 835 938 
1722 835 940 938 
1723 835 639 940 
1724 938 940 913 
1725 908 939 926 
1726 939 941 926 
1727 939 913 941 
1728 926 941 907 
1729 639 942 940 
1730 942 943 940 
1731 942 914 943 
1732 940 943 913 
1733 914 944 943 
1734 944 945 943 
1735 944 912 945 
1736 943 945 913 
1737 914 946 944 
1738 946 930 944 
1739 946 905 930 
1740 944 930 912 
1741 913 945 941 
1742 945 936 941 
1743 945 912 936 
1744 941 936 907 
1745 906 947 934 
1746 947 948 934 
1747 947 915 948 
1748 934 948 911 
1749 915 949 948 
1750 949 950 948 
1751 949 909 950 
1752 948 950 911 
1753 915 951 949 
1754 951 922 949 
1755 951 640 922 
1756 949 922 909 
1757 911 950 935 
1758 950 927 935 
1759 950 909 927 
1760 935 927 907 
1761 904 952 954 
1762 952 953 954 
1763 952 916 953 
1764 954 953 917 
1765 916 955 953 
1766 955 956 953 
1767 955 665 956 
1768 953 956 917 
1769 916 957 955 
1770 957 740 955 
1771 957 638 740 
1772 955 740 665 
1773 917 956 958 
1774 956 746 958 
1775 956 665 746 
1776 958 746 632 
1777 640 951 815 
1778 951 959 815 
1779 951 915 959 
1780 815 959 683 
1781 915 960 959 
1782 960 961 959 
1783 960 918 961 
1784 959 961 683 
1785 915 947 960 
1786 947 962 960 
1787 947 906 962 
1788 960 962 918 
1789 683 961 816 
1790 961 963 816 
1791 961 918 963 
1792 816 963 634 
1793 639 853 965 
1794 853 964 965 
1795 853 693 964 
1796 965 964 919 
1797 693 966 964 
1798 966 967 964 
1799 966 916 967 
1800 964 967 919 
1801 693 849 966 
1802 849 957 966 
1803 849 638 957 
1804 966 957 916 
1805 919 967 968 
1806 967 952 968 
1807 967 916 952 
1808 968 952 904 
1809 905 946 970 
1810 946 969 970 
1811 946 914 969 
1812 970 969 920 
1813 914 971 969 
1814 971 972 969 
1815 971 919 972 
1816 969 972 920 
1817 914 942 971 
1818 942 965 971 
1819 942 639 965 
1820 971 965 919 
1821 920 972 973 
1822 972 968 973 
1823 972 919 968 
1824 973 968 904 
$EndElements
